<?xml version="1.0" standalone="no"?>
<!DOCTYPE svg PUBLIC "-//W3C//DTD SVG 1.1//EN" "http://www.w3.org/Graphics/SVG/1.1/DTD/svg11.dtd" >
<svg>
<metadata>
Created by FontForge 20090622 at Mon May  6 19:37:33 2019
 By deploy user
Copyright (c) 2009-2011 by Accademia di Belle Arti di Urbino and students of MA course of Visual design. Some rights reserved.
</metadata>
<defs>
<font id="TitilliumText-Italic" horiz-adv-x="560" >
  <font-face 
    font-family="TitilliumText"
    font-weight="400"
    font-style="italic"
    font-stretch="normal"
    units-per-em="1000"
    panose-1="0 0 0 0 0 0 0 0 0 0"
    ascent="750"
    descent="-250"
    x-height="500"
    cap-height="693"
    bbox="-154 -280 1118 1080"
    underline-thickness="30"
    underline-position="-70"
    slope="-13"
    unicode-range="U+000D-U+F6C3"
  />
<missing-glyph horiz-adv-x="223" 
 />
    <glyph glyph-name=".notdef" horiz-adv-x="223" 
 />
    <glyph glyph-name=".null" horiz-adv-x="0" 
 />
    <glyph glyph-name=".null" horiz-adv-x="0" 
 />
    <glyph glyph-name="nonmarkingreturn" horiz-adv-x="333" 
 />
    <glyph glyph-name="CR" unicode="&#xd;" horiz-adv-x="223" 
 />
    <glyph glyph-name="DLE" horiz-adv-x="0" 
 />
    <glyph glyph-name="space" unicode=" " horiz-adv-x="220" 
 />
    <glyph glyph-name="exclam" unicode="!" horiz-adv-x="192" 
d="M115 227l106 473h72l-116 -473h-62zM63 0l24 107h71l-24 -107h-71z" />
    <glyph glyph-name="quotedbl" unicode="&#x22;" horiz-adv-x="313" 
d="M309 469h-92l51 225h98z" />
    <glyph glyph-name="numbersign" unicode="#" 
d="M574 181h-112l-44 -181h-64l44 181h-158l-45 -181h-64l45 181h-112l15 60h112l45 184h-112l15 60h112l46 181h64l-46 -181h159l45 181h64l-45 -181h111l-15 -60h-111l-46 -184h112zM413 241l46 184h-159l-45 -184h158z" />
    <glyph glyph-name="dollar" unicode="$" 
d="M606 646l-12 -52q-52 9 -105 14l-94 -242q72 -26 100 -56t28 -91q0 -107 -63.5 -168t-172.5 -61q-13 0 -39 2l-43 -112h-49l45 116q-26 3 -52.5 7.5t-40.5 7.5l-13 3l13 54q57 -9 115 -14l103 265q-68 24 -98 54.5t-30 88.5q0 99 63 154.5t169 55.5q5 0 16 -0.5t16 -0.5
l44 112h52l-46 -118q24 -3 47.5 -8t34.5 -8zM453 213q0 37 -17 55.5t-65 35.5l-99 -253h18q77 0 120 43t43 119zM267 468q0 -33 18 -51t65 -36l89 230h-12q-75 0 -117.5 -36.5t-42.5 -106.5z" />
    <glyph glyph-name="percent" unicode="%" 
d="M296 653q-28 0 -45 -21.5t-29 -67.5q-23 -92 29 -92q29 0 46 22.5t28 69.5q13 45 6.5 67t-35.5 22zM159 6l354 702l49 -14l-355 -702zM165 564q35 138 143 138q110 0 75 -138q-17 -71 -55 -106t-89 -35q-109 0 -74 141zM341 141q35 138 143 138q51 0 71.5 -34t3.5 -104
q-17 -71 -55 -106t-89 -35q-109 0 -74 141zM398 141q-12 -46 -6 -69t34 -23t46 22.5t30 69.5q11 45 4.5 67t-34.5 22t-45 -21.5t-29 -67.5z" />
    <glyph glyph-name="ampersand" unicode="&#x26;" horiz-adv-x="634" 
d="M444 703q140 0 140 -120q0 -77 -48.5 -130t-149.5 -90l113 -157q39 65 61 136h67q-28 -97 -88 -185l95 -120l-49 -44l-90 116q-96 -119 -232 -119q-98 0 -142.5 40t-44.5 119q0 99 48.5 159t157.5 101q-26 52 -26 99q0 92 50.5 143.5t137.5 51.5zM273 52q53 0 101.5 27.5
t83.5 75.5l-148 208q-88 -34 -124.5 -83t-36.5 -125q0 -103 124 -103zM328 506q0 -56 30 -100q84 34 119 74t35 98q0 65 -71 65q-55 0 -84 -38t-29 -99z" />
    <glyph glyph-name="quotesingle" unicode="'" horiz-adv-x="164" 
d="M219 469h-61l51 225h67z" />
    <glyph glyph-name="parenleft" unicode="(" horiz-adv-x="227" 
d="M309 748h67l-24 -38t-52.5 -98t-66.5 -146t-53 -170.5t-24 -183.5q0 -63 3.5 -122t6.5 -86l4 -28h-66q-21 86 -21 236q0 91 23.5 190t56.5 175.5t66 139.5t57 97z" />
    <glyph glyph-name="parenright" unicode=")" horiz-adv-x="227" 
d="M63 -118h-67l24 38t52.5 98t66.5 146t53 170.5t24 183.5q0 63 -3.5 122t-6.5 86l-4 28h66q21 -86 21 -236q0 -91 -23.5 -190t-56.5 -175.5t-66 -139.5t-57 -97z" />
    <glyph glyph-name="asterisk" unicode="*" horiz-adv-x="413" 
d="M491 512h-132l40 -126l-46 -14l-42 127l-107 -79l-29 38l108 79l-106 78l29 39l107 -78l41 126l47 -15l-41 -127h131v-48z" />
    <glyph glyph-name="plus" unicode="+" 
d="M113 219v64h191v197h65v-197h193v-64h-193v-199h-65v199h-191z" />
    <glyph glyph-name="comma" unicode="," horiz-adv-x="184" 
d="M48 -129h-57l97 236h77z" />
    <glyph glyph-name="hyphen" unicode="-" horiz-adv-x="342" 
d="M102 236l15 64h248l-17 -64h-246z" />
    <glyph glyph-name="period" unicode="." horiz-adv-x="170" 
d="M50 0l24 107h71l-24 -107h-71z" />
    <glyph glyph-name="slash" unicode="/" horiz-adv-x="415" 
d="M108 -9l-66 24l427 691l66 -24z" />
    <glyph glyph-name="zero" unicode="0" 
d="M411 671q99 0 149 -50t50 -145q0 -126 -36.5 -235.5t-109 -180t-165.5 -70.5q-97 0 -147 48.5t-50 141.5q0 90 21 176.5t58.5 157t97.5 114t132 43.5zM410 608q-57 0 -103.5 -42t-74 -106.5t-42.5 -135t-15 -135.5q0 -136 124 -136q74 0 130 67.5t82 160.5t26 188
q0 139 -127 139z" />
    <glyph glyph-name="one" unicode="1" 
d="M234 527l238 134h63l-152 -661h-71l131 573l-191 -105z" />
    <glyph glyph-name="two" unicode="2" 
d="M490 0h-422l14 59l260 218q95 80 140 132.5t45 104.5q0 51 -31.5 73t-96.5 22q-34 0 -80 -5.5t-75 -11.5l-29 -5l8 55q101 29 190 29q186 0 186 -145q0 -74 -46 -134.5t-137 -132.5l-245 -196h334z" />
    <glyph glyph-name="three" unicode="3" 
d="M215 589l7 52q96 30 194 30q177 0 177 -136q0 -129 -137 -184q40 -18 60 -48t20 -85q0 -104 -75.5 -166t-192.5 -62q-43 0 -91.5 8.5t-76.5 17.5l-27 8l16 54q107 -25 185 -25q79 0 134.5 44t55.5 117q0 97 -119 98h-129l15 57l129 3q54 0 107 43t53 103q0 47 -28 68.5
t-89 21.5q-40 0 -87 -5t-74 -9z" />
    <glyph glyph-name="four" unicode="4" 
d="M362 -2l29 127h-313l12 54l318 481h79l-319 -474h238l50 219h71l-50 -219h81l-15 -61h-81l-29 -127h-71z" />
    <glyph glyph-name="five" unicode="5" 
d="M254 660h375l-14 -62h-317l-74 -228q92 43 161 43q170 0 170 -144q0 -118 -79 -198t-195 -80q-44 0 -96.5 8.5t-82.5 16.5l-31 8l17 58q112 -28 191 -28q85 0 144.5 59.5t59.5 145.5q0 92 -118 92q-32 0 -72 -10.5t-64 -21.5l-24 -11l-56 10z" />
    <glyph glyph-name="six" unicode="6" 
d="M632 651l-21 -59q-80 16 -158 16q-51 0 -93.5 -21.5t-71 -58t-47.5 -75.5t-32 -84q94 44 183 44q88 0 132 -41.5t44 -117.5q0 -119 -70.5 -191.5t-195.5 -72.5q-90 0 -139.5 58t-49.5 168q0 72 22 149t64 147t113 114.5t158 44.5q35 0 75.5 -5t63.5 -10zM371 350
q-37 0 -80.5 -10t-68.5 -20l-25 -11q-10 -36 -10 -94q0 -75 29.5 -118.5t88.5 -43.5q92 0 141 52.5t49 135.5q0 56 -29.5 82.5t-94.5 26.5z" />
    <glyph glyph-name="seven" unicode="7" 
d="M218 597l14 63h397l-25 -109l-391 -563l-64 22l385 550l8 37h-324z" />
    <glyph glyph-name="eight" unicode="8" 
d="M440 671q101 0 150 -35.5t49 -97.5q0 -65 -42 -117t-118 -76q53 -21 72 -52t19 -74q0 -25 -8 -53t-29.5 -60.5t-53.5 -57.5t-86.5 -42t-122.5 -17q-204 0 -204 142q0 144 167 214q-44 24 -59 49t-15 64q0 85 71 149t210 64zM286 52q102 0 156 51.5t54 106.5
q0 44 -22.5 64.5t-75.5 36.5h-102q-64 -19 -108.5 -60t-44.5 -109q0 -90 143 -90zM424 608q-97 0 -144.5 -43t-47.5 -102q0 -31 17.5 -53t61.5 -39h102q23 6 46 17.5t47.5 29t39.5 43t15 54.5q0 47 -32.5 70t-104.5 23z" />
    <glyph glyph-name="nine" unicode="9" 
d="M78 11l24 63q74 -18 151 -18q89 0 152.5 57.5t93.5 172.5l-32 -8q-32 -9 -79.5 -18.5t-77.5 -9.5q-191 0 -161 193q17 97 93 162.5t186 65.5q106 0 144.5 -81t10.5 -232q-29 -188 -121.5 -278t-224.5 -90q-33 0 -72.5 5t-62.5 11zM332 315q29 0 75 8.5t77 16.5l31 8
q29 116 4 186.5t-108 70.5q-70 0 -123.5 -43t-66.5 -115q-27 -132 111 -132z" />
    <glyph glyph-name="colon" unicode=":" horiz-adv-x="172" 
d="M127 332l24 107h71l-24 -107h-71zM51 0l24 107h71l-24 -107h-71z" />
    <glyph glyph-name="semicolon" unicode=";" horiz-adv-x="203" 
d="M59 -129h-57l97 236h77zM147 332l24 107h71l-24 -107h-71z" />
    <glyph glyph-name="less" unicode="&#x3c;" 
d="M523 413l-345 -161l345 -165v-74l-417 207v62l417 204v-73z" />
    <glyph glyph-name="equal" unicode="=" 
d="M122 310v64h431v-64h-431zM122 127v65h431v-65h-431z" />
    <glyph glyph-name="greater" unicode="&#x3e;" 
d="M496 252l-345 161v73l417 -204v-62l-417 -207v74z" />
    <glyph glyph-name="question" unicode="?" horiz-adv-x="413" 
d="M502 574q0 -72 -32 -115t-133 -122q-68 -54 -79 -103l-8 -39h-66q1 31 6 59q13 63 102 133q82 63 109 97.5t27 84.5q0 70 -103 70q-27 0 -63 -4.5t-59 -9.5l-23 -5l5 58q88 25 154 25q163 0 163 -129zM143 1l24 112h72l-25 -112h-71z" />
    <glyph glyph-name="at" unicode="@" horiz-adv-x="931" 
d="M639 720q95 0 163 -22t106 -60t55.5 -93t15.5 -115.5t-19 -132.5q-23 -95 -48 -156.5t-55.5 -94t-61 -44.5t-73.5 -12q-86 0 -97 57q-114 -57 -191 -57q-49 0 -78 21t-37 58t-7 70t8 74q54 297 254 297q55 0 190 -25q-80 -327 -81 -386q-1 -26 12 -34t42 -8q34 0 58 17
t50 73.5t50 159.5q15 63 18 112t-9.5 95.5t-43.5 77t-89.5 49t-143.5 18.5q-188 0 -294.5 -93t-157.5 -302q-97 -403 280 -403l137 10l-13 -62q-95 -10 -140 -10q-100 0 -172 28t-110 72.5t-55 107t-14.5 125t19.5 132.5q58 247 183.5 351.5t348.5 104.5zM451 53
q67 0 163 53q2 25 25.5 134t44.5 195q-61 14 -114 14q-73 0 -114.5 -59.5t-65.5 -176.5q-34 -159 61 -160z" />
    <glyph glyph-name="A" unicode="A" horiz-adv-x="554" 
d="M25 0l349 693h141l17 -693h-72l-6 182h-264l-92 -182h-73zM415 630l-195 -386h234l-8 386h-31z" />
    <glyph glyph-name="B" unicode="B" horiz-adv-x="578" 
d="M238 693h223q83 0 124 -31.5t41 -103.5q0 -73 -36.5 -124t-94.5 -76q43 -16 64 -44t21 -75q0 -109 -69 -174t-195 -65h-237zM386 323h-161l-60 -260h165q83 0 129 47t46 127q0 86 -119 86zM448 630h-153l-57 -246h159q69 0 112 47t43 117q0 46 -24.5 64t-79.5 18z" />
    <glyph glyph-name="C" unicode="C" horiz-adv-x="504" 
d="M477 71l-4 -59q-89 -22 -168 -22q-192 0 -192 198q0 84 21 171t61 165.5t110 128.5t157 50q35 0 76.5 -5.5t65.5 -11.5l24 -6l-17 -56q-78 15 -153 15q-64 0 -117 -42t-85.5 -108.5t-50 -144t-17.5 -152.5q0 -70 30.5 -104t96.5 -34q35 0 75.5 4t63.5 8z" />
    <glyph glyph-name="D" unicode="D" horiz-adv-x="607" 
d="M318 0h-239l160 693h223q94 0 141.5 -49.5t47.5 -156.5q0 -65 -12 -131.5t-39 -130.5t-65 -114t-94.5 -80.5t-122.5 -30.5zM576 487q0 75 -30.5 109t-97.5 34h-152l-130 -567h162q59 0 108.5 42.5t78.5 108t45 137t16 136.5z" />
    <glyph glyph-name="E" unicode="E" horiz-adv-x="505" 
d="M79 0l160 693h384l-15 -63h-312l-57 -246h257l-15 -63h-257l-59 -258h313l-14 -63h-385z" />
    <glyph glyph-name="F" unicode="F" horiz-adv-x="482" 
d="M79 0l160 693h376l-15 -63h-304l-64 -279h260l-16 -63h-259l-67 -288h-71z" />
    <glyph glyph-name="G" unicode="G" horiz-adv-x="573" 
d="M399 296l15 61h180l-80 -340q-90 -27 -193 -27q-207 0 -207 194q0 75 13 148t41.5 140.5t69 118.5t100.5 81.5t131 30.5q44 0 94 -7.5t77 -15.5l28 -7l-18 -55q-101 22 -190 22q-68 0 -122 -44t-85.5 -113.5t-47.5 -146.5t-16 -152q0 -131 139 -131q26 0 58 4t50 8l19 4
l53 227h-109z" />
    <glyph glyph-name="H" unicode="H" horiz-adv-x="624" 
d="M474 0l73 318h-324l-73 -318h-71l160 693h72l-73 -312h324l72 312h71l-160 -693h-71z" />
    <glyph glyph-name="I" unicode="I" horiz-adv-x="326" 
d="M198 635l14 58h222l-14 -58h-76l-132 -577h76l-13 -58h-222l13 58h75l132 577h-75z" />
    <glyph glyph-name="J" unicode="J" horiz-adv-x="263" 
d="M348 693l-133 -576q-15 -65 -26.5 -97t-34.5 -55t-55.5 -29t-91.5 -6l12 63q63 1 85 23t41 107l131 570h72z" />
    <glyph glyph-name="K" unicode="K" horiz-adv-x="519" 
d="M426 0l-103 309l-102 -2l-71 -307h-71l160 693h72l-76 -323l94 3l250 320h81l-273 -349l114 -344h-75z" />
    <glyph glyph-name="L" unicode="L" horiz-adv-x="434" 
d="M427 0h-348l160 693h72l-146 -630h277z" />
    <glyph glyph-name="M" unicode="M" horiz-adv-x="779" 
d="M79 0l160 693h122l47 -593l329 593h124l-160 -693h-72l146 630h-10l-334 -606h-75l-50 606h-11l-145 -630h-71z" />
    <glyph glyph-name="N" unicode="N" horiz-adv-x="629" 
d="M79 0l160 693h129l110 -620h20l143 620h69l-160 -693h-124l-113 624h-21l-144 -624h-69z" />
    <glyph glyph-name="O" unicode="O" horiz-adv-x="629" 
d="M335 53q67 0 118 42q69 56 107 169.5t38 227.5q0 77 -35 112.5t-111 35.5q-61 0 -111 -39q-71 -57 -112 -174.5t-41 -225.5q0 -80 33.5 -114t113.5 -34zM327 -10q-111 0 -161.5 48t-50.5 159q0 128 41.5 246.5t117.5 187.5q78 72 184 72q214 0 214 -207
q0 -135 -42.5 -256t-123.5 -188q-76 -62 -179 -62z" />
    <glyph glyph-name="P" unicode="P" horiz-adv-x="547" 
d="M362 235h-158l-54 -235h-71l160 693h220q88 0 128 -39.5t40 -121.5q0 -132 -69.5 -214.5t-195.5 -82.5zM219 299h154q87 0 133 65.5t46 166.5q0 50 -24 74t-78 24h-154z" />
    <glyph glyph-name="Q" unicode="Q" horiz-adv-x="629" 
d="M327 -10q-111 0 -161.5 48t-50.5 159q0 128 41.5 246.5t117.5 187.5q78 72 184 72q214 0 214 -207q0 -135 -42.5 -256t-123.5 -188q-23 -18 -47 -31l48 -143l-68 -22l-44 142q-35 -8 -68 -8zM335 53q67 0 118 42q69 56 107 169.5t38 227.5q0 77 -35 112.5t-111 35.5
q-61 0 -111 -39q-71 -57 -112 -174.5t-41 -225.5q0 -80 33.5 -114t113.5 -34z" />
    <glyph glyph-name="R" unicode="R" horiz-adv-x="565" 
d="M455 0l-73 263h-171l-61 -263h-71l160 693h213q90 0 133.5 -38.5t43.5 -126.5q0 -109 -54.5 -173t-125.5 -83l77 -272h-71zM554 526q0 57 -25.5 80.5t-84.5 23.5h-148l-71 -304h153q80 0 128 56t48 144z" />
    <glyph glyph-name="S" unicode="S" horiz-adv-x="500" 
d="M591 676l-13 -54q-105 18 -175 18q-78 0 -122.5 -38.5t-44.5 -111.5q0 -41 25.5 -60t101.5 -45q79 -28 110 -59.5t31 -96.5q0 -112 -67 -175.5t-180 -63.5q-42 0 -92.5 6t-79.5 12l-29 7l13 56q116 -18 191 -18q80 0 125 45t45 125q0 43 -22 62.5t-92 42.5
q-82 27 -117.5 59t-35.5 97q0 103 66 161t177 58q40 0 86 -6.5t72 -13.5z" />
    <glyph glyph-name="T" unicode="T" horiz-adv-x="470" 
d="M155 630l15 63h448l-15 -63h-188l-146 -630h-71l145 630h-188z" />
    <glyph glyph-name="U" unicode="U" horiz-adv-x="594" 
d="M305 693l-111 -478q-9 -41 -9 -73q0 -88 131 -88q80 0 121 37.5t59 118.5l112 483h72l-112 -484q-26 -113 -86 -166t-171 -53q-93 0 -145.5 36t-52.5 108q0 40 11 89l109 470h72z" />
    <glyph glyph-name="V" unicode="V" horiz-adv-x="544" 
d="M605 693h71l-331 -693h-153l-10 693h72l5 -630h46z" />
    <glyph glyph-name="W" unicode="W" horiz-adv-x="826" 
d="M188 693h71l-31 -627h28l273 617h78l-18 -617h27l265 627h72l-298 -693h-128l18 577l-253 -577h-131z" />
    <glyph glyph-name="X" unicode="X" horiz-adv-x="513" 
d="M257 693l93 -292l229 292h79l-279 -350l115 -343h-75l-94 290l-232 -290h-80l282 348l-112 345h74z" />
    <glyph glyph-name="Y" unicode="Y" horiz-adv-x="492" 
d="M639 693l-294 -397l-69 -296h-68l70 303l-107 390h72l84 -327l235 327h77z" />
    <glyph glyph-name="Z" unicode="Z" horiz-adv-x="495" 
d="M185 630l15 63h416l-23 -99l-456 -506l-6 -25h338l-15 -63h-416l22 96l455 506l7 28h-337z" />
    <glyph glyph-name="bracketleft" unicode="[" horiz-adv-x="278" 
d="M231 747h193l-15 -61h-121l-175 -747h121l-15 -61h-191z" />
    <glyph glyph-name="backslash" unicode="\" horiz-adv-x="421" 
d="M393 9l-73 -9l-131 692l73 9z" />
    <glyph glyph-name="bracketright" unicode="]" horiz-adv-x="278" 
d="M192 -121h-193l15 61h121l175 747h-121l15 61h191z" />
    <glyph glyph-name="asciicircum" unicode="^" 
d="M485 319l-146 272l-143 -272h-75l185 341h63l191 -341h-75z" />
    <glyph glyph-name="underscore" unicode="_" horiz-adv-x="585" 
d="M50 -79h449l-17 -69h-447z" />
    <glyph glyph-name="grave" unicode="`" horiz-adv-x="518" 
d="M317 739l181 -93l-31 -49l-184 87z" />
    <glyph glyph-name="a" unicode="a" horiz-adv-x="498" 
d="M510 346l-15 -61l-28 -124l-29 -159l-68 -3q10 66 15 87q-9 -11 -24 -27t-58 -42.5t-83 -26.5q-65 0 -96 30.5t-31 95.5q0 87 53.5 129.5t154.5 51.5l131 10l9 39q12 51 -9.5 76.5t-69.5 25.5q-32 0 -77.5 -4t-74.5 -8l-30 -4l-3 53q103 25 196 25q79 0 117 -44t20 -120z
M420 254l-115 -10q-71 -7 -105.5 -35t-34.5 -87q0 -71 68 -71q32 0 73 25.5t66 51.5l24 25z" />
    <glyph glyph-name="b" unicode="b" horiz-adv-x="497" 
d="M390 510q75 0 103.5 -40t28.5 -112q0 -54 -15 -114.5t-43.5 -119t-80 -96.5t-115.5 -38q-36 0 -85.5 6t-80.5 12l-32 7l162 704h70l-67 -287q9 9 23.5 22t55.5 34.5t76 21.5zM267 51q49 0 87 36t57.5 88t29 98.5t9.5 79.5q0 47 -16 71.5t-65 24.5q-28 0 -65.5 -22.5
t-61.5 -44.5l-23 -22l-68 -296q71 -13 116 -13z" />
    <glyph glyph-name="c" unicode="c" horiz-adv-x="405" 
d="M356 510q25 0 55.5 -4.5t48.5 -9.5l19 -4l-18 -54q-64 11 -107 11q-62 0 -106.5 -45t-63.5 -110t-19 -141q0 -51 24.5 -76.5t80.5 -25.5q17 0 45 3.5t47 7.5l20 4l-4 -55q-69 -21 -130 -21q-77 0 -116 39t-39 112q0 99 27.5 180.5t88.5 135t147 53.5z" />
    <glyph glyph-name="d" unicode="d" horiz-adv-x="497" 
d="M597 719l-167 -719h-68l21 92q-3 -4 -9 -11t-24.5 -24.5t-37.5 -31t-46 -24.5t-52 -11q-124 0 -124 144q0 88 28 172.5t87 144t134 59.5q27 0 60.5 -4.5t54.5 -9.5l20 -4l53 227h70zM401 173l60 261q-66 15 -122 15q-54 0 -96.5 -53t-62 -123.5t-19.5 -138.5
q0 -83 75 -83q31 0 72 30.5t67 60.5z" />
    <glyph glyph-name="e" unicode="e" horiz-adv-x="460" 
d="M260 52q33 0 74 6t66 12l25 5l-6 -56q-88 -29 -177 -29q-72 0 -111.5 38t-39.5 112q0 67 16.5 131t48 118.5t85 87.5t120.5 33q146 0 146 -119q0 -89 -67.5 -124.5t-213.5 -35.5h-53q-11 -48 -11 -85q0 -45 26.5 -69.5t71.5 -24.5zM183 286h57q101 0 149 23t48 80
q0 63 -79 63q-126 0 -175 -166z" />
    <glyph glyph-name="f" unicode="f" horiz-adv-x="308" 
d="M257 439l-102 -439l-61 -223h-61l154 662h-58l15 61h56l11 45q24 102 61.5 143.5t107.5 41.5q16 0 37 -3.5t33 -6.5l13 -4l-13 -54q-40 7 -73 7q-39 0 -59 -29t-37 -96l-11 -44h137l-16 -61h-134z" />
    <glyph glyph-name="g" unicode="g" horiz-adv-x="467" 
d="M194 -236q-81 0 -128 35t-47 96q0 85 133 154q-16 16 -16 43q0 20 13.5 44t26.5 38l14 15q-69 33 -69 119q0 78 54.5 140t146.5 62q23 0 46.5 -4t35.5 -8l12 -4l148 6l-14 -61h-92q18 -27 18 -69q0 -75 -56 -137t-155 -62l-32 3q-32 -42 -32 -69q0 -17 19 -24.5t73 -13.5
q81 -10 116.5 -36.5t35.5 -82.5q0 -76 -68.5 -130t-182.5 -54zM276 8q-55 6 -87 16q-41 -20 -72.5 -51t-31.5 -63q0 -38 29 -62t84 -24q73 0 126 32.5t53 86.5q0 31 -22.5 45t-78.5 20zM273 230q65 0 100.5 44t35.5 91q0 43 -21 64.5t-70 21.5q-59 0 -94.5 -44t-35.5 -95
q0 -82 85 -82z" />
    <glyph glyph-name="h" unicode="h" horiz-adv-x="497" 
d="M137 0h-70l167 719h69l-71 -310l24 28t58 45t82 28q58 0 88 -34t30 -91q0 -43 -21 -132l-58 -253h-69l58 250q18 74 18 122q0 76 -70 76q-19 0 -42.5 -12t-43 -29t-36.5 -34.5t-27 -29.5l-10 -12z" />
    <glyph glyph-name="i" unicode="i" horiz-adv-x="203" 
d="M67 0l115 500h70l-116 -500h-69zM206 608l21 87h70l-20 -87h-71z" />
    <glyph glyph-name="j" unicode="j" horiz-adv-x="203" 
d="M67 0l115 500h70l-116 -500q-18 -80 -35.5 -114.5t-51 -59t-115.5 -62.5l-23 57q91 46 114 72.5t42 106.5zM208 607l19 86h70l-19 -86h-70z" />
    <glyph glyph-name="k" unicode="k" horiz-adv-x="444" 
d="M137 0h-70l167 719h69l-97 -420l67 3l185 198h81l-214 -231l97 -269h-74l-87 242l-69 -2z" />
    <glyph glyph-name="l" unicode="l" horiz-adv-x="212" 
d="M71 0l166 719h70l-166 -719h-70z" />
    <glyph glyph-name="m" unicode="m" horiz-adv-x="775" 
d="M434 0h-70l58 250q19 78 19 122q0 76 -70 76q-31 0 -70.5 -29t-63.5 -58l-24 -29l-77 -332h-69l115 500h68l-19 -90q3 4 9 11t24 24t36.5 30t45 24t51.5 11q45 0 72 -22.5t32 -45.5l5 -22q9 10 25.5 25t61 40t81.5 25q58 0 87.5 -34t29.5 -91q0 -42 -20 -132l-59 -253
h-69l58 250q19 78 19 120q0 78 -69 78q-28 0 -63.5 -23t-57.5 -46l-21 -23q-3 -46 -17 -103z" />
    <glyph glyph-name="n" unicode="n" horiz-adv-x="497" 
d="M136 0h-69l115 500h68l-19 -91q3 4 9 11t24 24.5t36.5 30.5t45 24t50.5 11q57 0 87 -34t30 -91q0 -50 -20 -130l-59 -255h-69l58 250q19 78 19 122q0 76 -71 76q-31 0 -70.5 -29t-63.5 -58l-24 -29z" />
    <glyph glyph-name="o" unicode="o" horiz-adv-x="494" 
d="M343 510q172 0 172 -169q0 -145 -70 -248t-184 -103q-169 0 -169 162q0 146 71.5 252t179.5 106zM261 51q81 0 132.5 86t51.5 205q0 50 -25.5 78.5t-76.5 28.5q-79 0 -130 -89t-51 -208q0 -101 99 -101z" />
    <glyph glyph-name="p" unicode="p" horiz-adv-x="496" 
d="M15 -223l167 723h68l-20 -92q3 4 9 11t24.5 24.5t37 31t44 24.5t49.5 11q129 0 129 -145q0 -86 -27.5 -169.5t-87 -144.5t-135.5 -61q-27 0 -61 5t-54 9l-20 5l-54 -232h-69zM375 449q-30 0 -70.5 -30.5t-66.5 -60.5l-26 -31l-61 -261q66 -15 122 -15q55 0 97.5 54
t61.5 123t19 134q0 87 -76 87z" />
    <glyph glyph-name="q" unicode="q" horiz-adv-x="495" 
d="M217 -10q-63 0 -95.5 38t-32.5 107q0 86 28 170t86.5 144.5t134.5 60.5q33 0 84 -6t85 -12l34 -7l-162 -702h-69l71 309q-3 -4 -9 -11t-24 -24.5t-36 -31t-44.5 -24.5t-50.5 -11zM338 449q-53 0 -95 -52t-62 -122t-20 -138q0 -86 77 -86q29 0 69.5 30t66.5 61l26 30
l60 262q-64 15 -122 15z" />
    <glyph glyph-name="r" unicode="r" horiz-adv-x="314" 
d="M67 0l116 500h69l-18 -75q94 67 183 86l-19 -72q-29 -7 -73 -26t-74 -35l-30 -15l-84 -363h-70z" />
    <glyph glyph-name="s" unicode="s" horiz-adv-x="429" 
d="M484 490l-14 -55q-94 14 -158 14q-52 0 -85 -29.5t-33 -71.5q0 -25 19 -37.5t75 -26.5q76 -19 106.5 -40.5t30.5 -72.5q0 -88 -60.5 -134.5t-155.5 -46.5q-34 0 -73.5 5.5t-61.5 10.5l-23 6l13 55q93 -16 153 -16q61 0 99 27t38 79q0 30 -20.5 42t-78.5 25
q-69 17 -100 39t-31 69q0 78 55.5 128t140.5 50q35 0 76 -5t64 -10z" />
    <glyph glyph-name="t" unicode="t" horiz-adv-x="317" 
d="M401 439h-142l-60 -256q-12 -56 -12 -84q0 -48 51 -48l79 6l-5 -54q-52 -13 -96 -13q-49 0 -75.5 25t-26.5 69q0 38 16 104l59 251h-66l16 61h65l36 150h70l-37 -150h143z" />
    <glyph glyph-name="u" unicode="u" horiz-adv-x="497" 
d="M475 500h70l-116 -500h-67l19 91q-3 -4 -9 -11t-24 -24.5t-36.5 -30.5t-45 -24t-50.5 -11q-57 0 -87 34t-30 91q0 45 19 130l60 255h69l-58 -250q-19 -78 -19 -122q0 -76 70 -76q31 0 70.5 29t63.5 58l24 29z" />
    <glyph glyph-name="v" unicode="v" horiz-adv-x="453" 
d="M140 500h69l10 -440h32l221 440h72l-255 -500h-135z" />
    <glyph glyph-name="w" unicode="w" horiz-adv-x="728" 
d="M145 500h70l-8 -439h19l209 429h82l6 -429h19l200 439h71l-228 -500h-126l-5 399l-191 -399h-124z" />
    <glyph glyph-name="x" unicode="x" horiz-adv-x="418" 
d="M138 500h72l69 -201l160 201h76l-209 -255l89 -245h-73l-68 196l-158 -196h-76l207 250z" />
    <glyph glyph-name="y" unicode="y" horiz-adv-x="454" 
d="M140 500h69l10 -440h31l222 440h72l-368 -722h-71l116 222h-67z" />
    <glyph glyph-name="z" unicode="z" horiz-adv-x="418" 
d="M139 439l15 61h341l-13 -60l-348 -379h260l-14 -61h-341l10 60l348 379h-258z" />
    <glyph glyph-name="braceleft" unicode="{" horiz-adv-x="315" 
d="M227 222q0 -18 -24 -101.5t-24 -112.5q0 -71 91 -71l-17 -64q-143 5 -143 115q0 31 23.5 115.5t23.5 101.5q0 31 -17 49t-56 32l14 56q65 17 88 41.5t34 76.5q2 11 13 67.5t15 70.5q26 80 74.5 115t138.5 39l-12 -63q-66 -4 -97.5 -33t-44.5 -87q-20 -110 -22 -118
q-14 -63 -40.5 -92t-80.5 -47q63 -27 63 -90z" />
    <glyph glyph-name="bar" unicode="|" horiz-adv-x="310" 
d="M177 -223v942h70v-942h-70z" />
    <glyph glyph-name="braceright" unicode="}" horiz-adv-x="314" 
d="M231 401q0 18 24 101.5t24 112.5q0 71 -91 71l17 64q143 -5 143 -115q0 -31 -23.5 -115.5t-23.5 -101.5q0 -31 17 -49t56 -32l-14 -56q-65 -17 -88 -41.5t-34 -76.5q-2 -11 -13 -67.5t-15 -70.5q-26 -80 -74.5 -115t-138.5 -39l12 63q66 4 97.5 33t44.5 87q20 110 22 118
q14 63 40.5 92t80.5 47q-63 27 -63 90z" />
    <glyph glyph-name="asciitilde" unicode="~" 
d="M544 308l10 -57q-59 -54 -112 -54q-30 0 -105.5 31.5t-94.5 31.5q-18 0 -44 -12t-43 -24l-17 -11l-11 58q62 53 116 53q29 0 103.5 -31.5t95.5 -31.5q16 0 41.5 11.5t42.5 23.5z" />
    <glyph glyph-name="exclamdown" unicode="&#xa1;" horiz-adv-x="179" 
d="M186 273l-106 -473h-72l116 473h62zM238 500l-24 -107h-71l24 107h71z" />
    <glyph glyph-name="cent" unicode="&#xa2;" 
d="M257 -81l28 118q-48 1 -78 19t-40.5 49.5t-9.5 66t11 76.5q27 103 82.5 157t134.5 57l29 121h59l-29 -121l94 -10l-19 -62q-82 7 -118 7q-126 0 -164 -149q-9 -42 -9.5 -74.5t25 -51.5t79.5 -19l125 7l-13 -62q-59 -7 -99 -7l-28 -122h-60z" />
    <glyph glyph-name="sterling" unicode="&#xa3;" 
d="M606 663l-16 -55q-70 8 -120 8q-23 0 -40.5 -8t-28 -18.5t-20 -34t-14 -40l-13.5 -51.5l-11 -45h197l-14 -61h-197l-67 -297h142l76 17l-1 -60l-78 -18h-321l14 61h96l67 297h-74l14 61h75l12 53q26 110 64.5 158.5t124.5 48.5q24 0 57 -4t54 -8z" />
    <glyph glyph-name="currency" unicode="&#xa4;" 
d="M508 33l-70 70q-46 -31 -100.5 -31t-100.5 31l-70 -70l-49 49l70 70q-30 45 -30 100t30 100l-70 70l49 49l70 -70q46 31 100.5 31t100.5 -31l70 70l49 -49l-71 -70q30 -45 30 -100t-30 -100l71 -70zM257 172q33 -33 80.5 -33t80.5 33q32 33 32 80t-32 80q-33 33 -80.5 33
t-80.5 -33q-32 -33 -32 -80t32 -80z" />
    <glyph glyph-name="yen" unicode="&#xa5;" 
d="M142 312l14 63h130l-115 286h77l114 -283l235 283h93l-242 -286h127l-14 -63h-162l-14 -16l-17 -71h173l-15 -62h-172l-38 -163h-71l38 163h-177l15 62h176l16 72l-4 15h-167z" />
    <glyph glyph-name="brokenbar" unicode="&#xa6;" horiz-adv-x="316" 
d="M180 719h70v-374h-70v374zM180 154h70v-377h-70v377z" />
    <glyph glyph-name="section" unicode="&#xa7;" horiz-adv-x="469" 
d="M545 634l-17 -62q-100 14 -145 14q-68 0 -104 -32t-36 -85q0 -36 24.5 -49.5t86.5 -24.5q126 -24 126 -110q0 -74 -78 -165q17 -22 17 -58q0 -19 -5 -42.5t-20.5 -53.5t-39 -54t-65 -40.5t-93.5 -16.5q-27 0 -67 4t-67 8l-27 4l20 62q101 -14 152 -14q64 0 102.5 38
t38.5 83q0 31 -21 43t-92 27q-71 13 -100.5 41t-29.5 73q0 52 32.5 97.5t54.5 61.5q-20 24 -20 75q0 74 59.5 133.5t163.5 59.5q27 0 64.5 -4.5t61.5 -8.5zM315 333q-67 13 -82 23l-3 -4q-3 -4 -7 -8.5t-9 -12l-10 -15t-10 -17t-8.5 -18.5t-6 -18.5t-2.5 -18.5
q0 -29 19.5 -44t70.5 -24q64 -14 89 -28q10 10 31.5 50.5t21.5 69.5q0 26 -21.5 40.5t-72.5 24.5z" />
    <glyph glyph-name="dieresis" unicode="&#xa8;" horiz-adv-x="694" 
d="M244 622l21 89h58l-21 -89h-58zM426 622l19 89h58l-21 -89h-56z" />
    <glyph glyph-name="copyright" unicode="&#xa9;" horiz-adv-x="644" 
d="M160 434q0 115 74.5 193.5t187.5 78.5q114 0 188.5 -79t74.5 -193q0 -115 -74 -193.5t-189 -78.5q-112 0 -187 78.5t-75 193.5zM202 434q0 -96 63 -163t157 -67t157 67t63 163t-63 163t-157 67t-157 -67t-63 -163zM499 338l4 -50q-38 -11 -78 -11q-64 0 -90 37.5
t-26 120.5q0 80 26 118t91 38q19 0 38 -2.5t29 -4.5l10 -3l-4 -51q-38 7 -70 7q-39 0 -51 -23.5t-12 -78.5q0 -54 13.5 -79t49.5 -25z" />
    <glyph glyph-name="ordfeminine" unicode="&#xaa;" horiz-adv-x="345" 
d="M410 562l-32 -139q5 -12 26 -16l-13 -47q-36 1 -50 6.5t-23 19.5q-62 -25 -115 -25q-38 0 -54.5 24.5t-6.5 65.5q10 42 36 62t76 23l89 6l6 22q4 24 -4.5 33.5t-33.5 9.5l-115 -7l8 45q73 14 122 14q54 0 75 -22t9 -75zM332 498l-77 -5q-42 -3 -52 -42q-9 -39 28 -39
q16 0 37.5 4t35.5 8l13 5z" />
    <glyph glyph-name="guillemotleft" unicode="&#xab;" horiz-adv-x="443" 
d="M491 407l-21 -73l-133 -88l89 -99l-19 -64l-140 148l13 35zM306 407l-21 -73l-133 -88l89 -99l-19 -64l-140 148l13 35z" />
    <glyph glyph-name="logicalnot" unicode="&#xac;" 
d="M124 341h427v-223h-65v159h-362v64z" />
    <glyph glyph-name="registered" unicode="&#xae;" horiz-adv-x="644" 
d="M160 434q0 115 74.5 193.5t187.5 78.5q114 0 188.5 -79t74.5 -193q0 -115 -74 -193.5t-189 -78.5q-112 0 -187 78.5t-75 193.5zM202 434q0 -96 63 -163t157 -67t157 67t63 163t-63 163t-157 67t-157 -67t-63 -163zM482 282l-51 108h-63v-108h-54v302h108q57 0 85 -21.5
t28 -72.5q0 -38 -11.5 -59t-40.5 -33l57 -116h-58zM368 539v-104h61q28 0 40.5 12t12.5 40t-15.5 40t-49.5 12h-49z" />
    <glyph glyph-name="macron" unicode="&#xaf;" horiz-adv-x="437" 
d="M230 640l13 55h272l-13 -55h-272z" />
    <glyph glyph-name="degree" unicode="&#xb0;" 
d="M268 562q0 63 39 102t102 39t102 -39t39 -102t-39 -101.5t-102 -38.5t-102 38.5t-39 101.5zM316 562q0 -42 25.5 -67.5t67.5 -25.5t68 25.5t26 67.5t-26 68.5t-68 26.5t-67.5 -26.5t-25.5 -68.5z" />
    <glyph glyph-name="plusminus" unicode="&#xb1;" 
d="M103 295v64h190v127h66v-127h192v-64h-192v-129h-66v129h-190zM103 103h448v-64h-448v64z" />
    <glyph glyph-name="twosuperior" unicode="&#xb2;" horiz-adv-x="280" 
d="M350 478h-208l13 54l111 88q64 47 73 84q5 20 -6.5 29t-34.5 9q-13 0 -35 -2.5t-37 -5.5l-16 -2l11 56q62 12 105 12q51 0 69.5 -22t7.5 -69q-8 -33 -29.5 -58t-61.5 -55l-78 -63h129z" />
    <glyph glyph-name="threesuperior" unicode="&#xb3;" horiz-adv-x="280" 
d="M221 789q61 11 104 11q53 0 73.5 -20.5t10.5 -62.5q-12 -49 -60 -76q23 -8 30 -22t0 -55q-24 -96 -131 -96q-22 0 -49 2.5t-43 5.5l-17 2l17 54q55 -8 99 -8q52 0 62 43q12 44 -37 44h-65l12 52h65q15 0 31 13.5t21 32.5q5 18 -4 26.5t-35 8.5l-93 -7z" />
    <glyph glyph-name="acute" unicode="&#xb4;" horiz-adv-x="545" 
d="M281 598l-6 54l224 93l7 -61z" />
    <glyph glyph-name="mu" unicode="&#xb5;" 
d="M44 -223l115 500l53 223h69l-58 -250q-19 -78 -19 -122q0 -76 70 -76q31 0 70.5 29t63.5 58l24 29l77 332h70l-116 -500h-67l19 91q-3 -4 -9 -11t-24 -24.5t-36.5 -30.5t-45 -24t-50.5 -11q-51 0 -81 28l-56 -241h-69z" />
    <glyph glyph-name="paragraph" unicode="&#xb6;" horiz-adv-x="556" 
d="M382 0l152 639h-112l-154 -639h-59l80 334q-73 1 -108 40.5t-35 99.5q0 84 64 155t159 71h310l-13 -61h-72l-152 -639h-60z" />
    <glyph glyph-name="periodcentered" unicode="&#xb7;" horiz-adv-x="171" 
d="M107 248l25 113h72l-25 -113h-72z" />
    <glyph glyph-name="cedilla" unicode="&#xb8;" horiz-adv-x="791" 
d="M500 -124q-20 -86 -107 -86q-19 0 -38.5 2t-30.5 4l-10 1l12 48q37 -3 64 -3q41 0 51 37q8 34 -34 34h-41l22 92h39l-14 -51h6q99 0 81 -78z" />
    <glyph glyph-name="onesuperior" unicode="&#xb9;" horiz-adv-x="280" 
d="M203 720l118 70h57l-77 -312h-60l61 246l-82 -48z" />
    <glyph glyph-name="ordmasculine" unicode="&#xba;" horiz-adv-x="340" 
d="M321 659q44 0 72 -19t31 -56q3 -30 -6 -76q-18 -78 -58 -113.5t-109 -35.5q-50 0 -76.5 25.5t-25.5 72.5q0 22 8 56q19 78 58 112t106 34zM264 416q36 0 57 21t34 74q6 22 6 46q0 25 -12.5 35.5t-39.5 10.5q-36 0 -56.5 -20t-32.5 -69q-8 -32 -8 -50q0 -48 52 -48z" />
    <glyph glyph-name="guillemotright" unicode="&#xbb;" horiz-adv-x="480" 
d="M288 82l21 73l133 88l-89 99l19 64l140 -148l-13 -35zM66 82l21 73l133 88l-89 99l19 64l140 -148l-13 -35z" />
    <glyph glyph-name="onequarter" unicode="&#xbc;" horiz-adv-x="590" 
d="M179 720l118 70h57l-77 -312h-60l61 246l-82 -48zM174 -9l-66 24l427 691l66 -24zM481 0l12 49h-142l13 52l125 211h67l-126 -207h77l27 88h55l-22 -88h28l-14 -56h-28l-12 -49h-60z" />
    <glyph glyph-name="onehalf" unicode="&#xbd;" horiz-adv-x="614" 
d="M179 720l118 70h57l-77 -312h-60l61 246l-82 -48zM174 -9l-66 24l427 691l66 -24zM586 0h-208l13 54l111 88q64 47 73 84q5 20 -6.5 29t-34.5 9q-13 0 -35 -2.5t-37 -5.5l-16 -2l11 56q62 12 105 12q51 0 69.5 -22t7.5 -69q-8 -33 -29.5 -58t-61.5 -55l-78 -63h129z" />
    <glyph glyph-name="threequarters" unicode="&#xbe;" horiz-adv-x="607" 
d="M219 789q61 11 104 11q53 0 73.5 -20.5t10.5 -62.5q-12 -49 -60 -76q23 -8 30 -22t0 -55q-24 -96 -131 -96q-22 0 -49 2.5t-43 5.5l-17 2l17 54q55 -8 99 -8q52 0 62 43q12 44 -37 44h-65l12 52h65q15 0 31 13.5t21 32.5q5 18 -4 26.5t-35 8.5l-93 -7zM192 -9l-66 24
l427 691l66 -24zM499 0l12 49h-142l13 52l125 211h67l-126 -207h77l27 88h55l-22 -88h28l-14 -56h-28l-12 -49h-60z" />
    <glyph glyph-name="questiondown" unicode="&#xbf;" horiz-adv-x="405" 
d="M23 -73q0 72 32 115t133 122q68 54 79 103l8 39h66q-1 -31 -6 -59q-13 -63 -102 -133q-82 -63 -109 -97.5t-27 -84.5q0 -70 103 -70q27 0 63 5t59 9l23 5l-5 -58q-88 -25 -154 -25q-163 0 -163 129zM382 500l-24 -112h-72l25 112h71z" />
    <glyph glyph-name="Agrave" unicode="&#xc0;" horiz-adv-x="554" 
d="M362 929l177 -99l-26 -47l-185 86zM25 0l349 693h141l17 -693h-72l-6 182h-264l-92 -182h-73zM415 630l-195 -386h234l-8 386h-31z" />
    <glyph glyph-name="Aacute" unicode="&#xc1;" horiz-adv-x="554" 
d="M391 786l-12 54l228 94l13 -64zM25 0l349 693h141l17 -693h-72l-6 182h-264l-92 -182h-73zM415 630l-195 -386h234l-8 386h-31z" />
    <glyph glyph-name="Acircumflex" unicode="&#xc2;" horiz-adv-x="554" 
d="M306 795l163 136h37l97 -136h-65l-57 82l-99 -82h-76zM25 0l349 693h141l17 -693h-72l-6 182h-264l-92 -182h-73zM415 630l-195 -386h234l-8 386h-31z" />
    <glyph glyph-name="Atilde" unicode="&#xc3;" horiz-adv-x="554" 
d="M627 914l3 -53q-63 -56 -95 -56q-25 0 -77.5 28.5t-66.5 28.5q-10 0 -31.5 -12t-38.5 -24l-17 -13l-3 52q67 58 104 58q26 0 77 -28t63 -28q9 0 29.5 11.5t36.5 23.5zM25 0l349 693h141l17 -693h-72l-6 182h-264l-92 -182h-73zM415 630l-195 -386h234l-8 386h-31z" />
    <glyph glyph-name="Adieresis" unicode="&#xc4;" horiz-adv-x="554" 
d="M344 816l20 90h58l-22 -90h-56zM530 816l21 90h58l-22 -90h-57zM25 0l349 693h141l17 -693h-72l-6 182h-264l-92 -182h-73zM415 630l-195 -386h234l-8 386h-31z" />
    <glyph glyph-name="Aring" unicode="&#xc5;" horiz-adv-x="554" 
d="M25 0l337 670q-22 26 -9 72q27 99 126 99q46 0 68 -25t10 -74q-13 -47 -42 -71l17 -671h-72l-6 182h-264l-92 -182h-73zM415 630l-195 -386h234l-8 386h-31zM400 742q-5 -21 6 -35t37 -14q56 0 67 49q5 23 -7 36.5t-36 13.5q-55 0 -67 -50z" />
    <glyph glyph-name="AE" unicode="&#xc6;" horiz-adv-x="782" 
d="M351 0l42 181h-206l-93 -181h-68l348 696h528l-15 -67l-319 2l-60 -246h264l-14 -65h-264l-60 -253h319l-15 -67h-387zM409 630l-191 -383h190l92 383h-91z" />
    <glyph glyph-name="Ccedilla" unicode="&#xc7;" horiz-adv-x="504" 
d="M477 71l-4 -59q-89 -22 -168 -22h-4l-10 -36h6q99 0 81 -78q-20 -86 -107 -86q-19 0 -38.5 2t-30.5 4l-10 1l12 48q37 -3 64 -3q41 0 51 37q8 34 -34 34h-41l19 80q-150 19 -150 195q0 84 21 171t61 165.5t110 128.5t157 50q35 0 76.5 -5.5t65.5 -11.5l24 -6l-17 -56
q-78 15 -153 15q-64 0 -117 -42t-85.5 -108.5t-50 -144t-17.5 -152.5q0 -70 30.5 -104t96.5 -34q35 0 75.5 4t63.5 8z" />
    <glyph glyph-name="Egrave" unicode="&#xc8;" horiz-adv-x="505" 
d="M372 929l177 -99l-26 -47l-185 86zM79 0l160 693h384l-15 -63h-312l-57 -246h257l-15 -63h-257l-59 -258h313l-14 -63h-385z" />
    <glyph glyph-name="Eacute" unicode="&#xc9;" horiz-adv-x="505" 
d="M379 786l-12 54l228 94l13 -64zM79 0l160 693h384l-15 -63h-312l-57 -246h257l-15 -63h-257l-59 -258h313l-14 -63h-385z" />
    <glyph glyph-name="Ecircumflex" unicode="&#xca;" horiz-adv-x="505" 
d="M349 793l163 136h37l97 -136h-65l-57 82l-99 -82h-76zM79 0l160 693h384l-15 -63h-312l-57 -246h257l-15 -63h-257l-59 -258h313l-14 -63h-385z" />
    <glyph glyph-name="Edieresis" unicode="&#xcb;" horiz-adv-x="505" 
d="M336 816l20 90h58l-22 -90h-56zM522 816l21 90h58l-22 -90h-57zM79 0l160 693h384l-15 -63h-312l-57 -246h257l-15 -63h-257l-59 -258h313l-14 -63h-385z" />
    <glyph glyph-name="Igrave" unicode="&#xcc;" horiz-adv-x="326" 
d="M198 635l14 58h222l-14 -58h-76l-132 -577h76l-13 -58h-222l13 58h75l132 577h-75zM230 929l177 -99l-26 -47l-185 86z" />
    <glyph glyph-name="Iacute" unicode="&#xcd;" horiz-adv-x="326" 
d="M198 635l14 58h222l-14 -58h-76l-132 -577h76l-13 -58h-222l13 58h75l132 577h-75zM273 786l-12 54l228 94l13 -64z" />
    <glyph glyph-name="Icircumflex" unicode="&#xce;" horiz-adv-x="326" 
d="M198 635l14 58h222l-14 -58h-76l-132 -577h76l-13 -58h-222l13 58h75l132 577h-75zM185 793l163 136h37l97 -136h-65l-57 82l-99 -82h-76z" />
    <glyph glyph-name="Idieresis" unicode="&#xcf;" horiz-adv-x="326" 
d="M198 635l14 58h222l-14 -58h-76l-132 -577h76l-13 -58h-222l13 58h75l132 577h-75zM407 820l21 90h58l-22 -90h-57zM221 820l20 90h58l-22 -90h-56z" />
    <glyph glyph-name="Eth" unicode="&#xd0;" horiz-adv-x="611" 
d="M322 0h-239l72 312h-68l15 72h69l72 309h223q94 0 141.5 -49.5t47.5 -156.5q0 -65 -12 -131.5t-39 -130.5t-65 -114t-94.5 -80.5t-122.5 -30.5zM580 487q0 75 -30.5 109t-97.5 34h-152l-57 -246h144l-16 -72h-144l-57 -249h162q59 0 108.5 42.5t78.5 108t45 137t16 136.5
z" />
    <glyph glyph-name="Ntilde" unicode="&#xd1;" horiz-adv-x="629" 
d="M666 912l3 -53q-63 -56 -95 -56q-25 0 -77.5 28.5t-66.5 28.5q-10 0 -31.5 -12t-38.5 -24l-17 -13l-3 52q67 58 104 58q26 0 77 -28t63 -28q9 0 29.5 11.5t36.5 23.5zM79 0l160 693h129l110 -620h20l143 620h69l-160 -693h-124l-113 624h-21l-144 -624h-69z" />
    <glyph glyph-name="Ograve" unicode="&#xd2;" horiz-adv-x="629" 
d="M414 929l177 -99l-26 -47l-185 86zM335 53q67 0 118 42q69 56 107 169.5t38 227.5q0 77 -35 112.5t-111 35.5q-61 0 -111 -39q-71 -57 -112 -174.5t-41 -225.5q0 -80 33.5 -114t113.5 -34zM327 -10q-111 0 -161.5 48t-50.5 159q0 128 41.5 246.5t117.5 187.5
q78 72 184 72q214 0 214 -207q0 -135 -42.5 -256t-123.5 -188q-76 -62 -179 -62z" />
    <glyph glyph-name="Oacute" unicode="&#xd3;" horiz-adv-x="629" 
d="M335 53q67 0 118 42q69 56 107 169.5t38 227.5q0 77 -35 112.5t-111 35.5q-61 0 -111 -39q-71 -57 -112 -174.5t-41 -225.5q0 -80 33.5 -114t113.5 -34zM327 -10q-111 0 -161.5 48t-50.5 159q0 128 41.5 246.5t117.5 187.5q78 72 184 72q214 0 214 -207
q0 -135 -42.5 -256t-123.5 -188q-76 -62 -179 -62zM428 786l-12 54l228 94l13 -64z" />
    <glyph glyph-name="Ocircumflex" unicode="&#xd4;" horiz-adv-x="629" 
d="M335 53q67 0 118 42q69 56 107 169.5t38 227.5q0 77 -35 112.5t-111 35.5q-61 0 -111 -39q-71 -57 -112 -174.5t-41 -225.5q0 -80 33.5 -114t113.5 -34zM327 -10q-111 0 -161.5 48t-50.5 159q0 128 41.5 246.5t117.5 187.5q78 72 184 72q214 0 214 -207
q0 -135 -42.5 -256t-123.5 -188q-76 -62 -179 -62zM350 795l163 136h37l97 -136h-65l-57 82l-99 -82h-76z" />
    <glyph glyph-name="Otilde" unicode="&#xd5;" horiz-adv-x="629" 
d="M678 912l3 -53q-63 -56 -95 -56q-25 0 -77.5 28.5t-66.5 28.5q-10 0 -31.5 -12t-38.5 -24l-17 -13l-3 52q67 58 104 58q26 0 77 -28t63 -28q9 0 29.5 11.5t36.5 23.5zM335 53q67 0 118 42q69 56 107 169.5t38 227.5q0 77 -35 112.5t-111 35.5q-61 0 -111 -39
q-71 -57 -112 -174.5t-41 -225.5q0 -80 33.5 -114t113.5 -34zM327 -10q-111 0 -161.5 48t-50.5 159q0 128 41.5 246.5t117.5 187.5q78 72 184 72q214 0 214 -207q0 -135 -42.5 -256t-123.5 -188q-76 -62 -179 -62z" />
    <glyph glyph-name="Odieresis" unicode="&#xd6;" horiz-adv-x="629" 
d="M375 815l21 89h64l-21 -89h-64zM563 815l20 89h64l-21 -89h-63zM335 53q67 0 118 42q69 56 107 169.5t38 227.5q0 77 -35 112.5t-111 35.5q-61 0 -111 -39q-71 -57 -112 -174.5t-41 -225.5q0 -80 33.5 -114t113.5 -34zM327 -10q-111 0 -161.5 48t-50.5 159
q0 128 41.5 246.5t117.5 187.5q78 72 184 72q214 0 214 -207q0 -135 -42.5 -256t-123.5 -188q-76 -62 -179 -62z" />
    <glyph glyph-name="multiply" unicode="&#xd7;" 
d="M175 458l162 -164l163 165l45 -46l-164 -162l164 -163l-45 -45l-163 164l-162 -164l-45 45l164 163l-164 162z" />
    <glyph glyph-name="Oslash" unicode="&#xd8;" horiz-adv-x="629" 
d="M111 -114l-41 25l90 132q-45 49 -45 154q0 128 41.5 246.5t117.5 187.5q78 72 184 72q79 0 131 -29l83 122l46 -20l-91 -133q45 -51 45 -147q0 -135 -42.5 -256t-123.5 -188q-76 -62 -179 -62q-79 0 -129 24zM205 109l166 244l178 263q-34 24 -97 24q-61 0 -111 -39
q-71 -57 -112 -174.5t-41 -225.5q0 -59 17 -92zM335 53q67 0 118 42q69 56 107 169.5t38 227.5q0 49 -16 84l-168 -246l-176 -257q33 -20 97 -20z" />
    <glyph glyph-name="Ugrave" unicode="&#xd9;" horiz-adv-x="594" 
d="M393 929l177 -99l-26 -47l-185 86zM305 693l-111 -478q-9 -41 -9 -73q0 -88 131 -88q80 0 121 37.5t59 118.5l112 483h72l-112 -484q-26 -113 -86 -166t-171 -53q-93 0 -145.5 36t-52.5 108q0 40 11 89l109 470h72z" />
    <glyph glyph-name="Uacute" unicode="&#xda;" horiz-adv-x="594" 
d="M305 693l-111 -478q-9 -41 -9 -73q0 -88 131 -88q80 0 121 37.5t59 118.5l112 483h72l-112 -484q-26 -113 -86 -166t-171 -53q-93 0 -145.5 36t-52.5 108q0 40 11 89l109 470h72zM388 786l-12 54l228 94l13 -64z" />
    <glyph glyph-name="Ucircumflex" unicode="&#xdb;" horiz-adv-x="594" 
d="M305 693l-111 -478q-9 -41 -9 -73q0 -88 131 -88q80 0 121 37.5t59 118.5l112 483h72l-112 -484q-26 -113 -86 -166t-171 -53q-93 0 -145.5 36t-52.5 108q0 40 11 89l109 470h72zM324 795l163 136h37l97 -136h-65l-57 82l-99 -82h-76z" />
    <glyph glyph-name="Udieresis" unicode="&#xdc;" horiz-adv-x="594" 
d="M348 815l20 89h65l-21 -89h-64zM536 815l20 89h64l-21 -89h-63zM305 693l-111 -478q-9 -41 -9 -73q0 -88 131 -88q80 0 121 37.5t59 118.5l112 483h72l-112 -484q-26 -113 -86 -166t-171 -53q-93 0 -145.5 36t-52.5 108q0 40 11 89l109 470h72z" />
    <glyph glyph-name="Yacute" unicode="&#xdd;" horiz-adv-x="492" 
d="M344 786l-12 54l228 94l13 -64zM639 693l-294 -397l-69 -296h-68l70 303l-107 390h72l84 -327l235 327h77z" />
    <glyph glyph-name="Thorn" unicode="&#xde;" horiz-adv-x="550" 
d="M355 190q129 0 172 170q18 69 -3.5 112t-95.5 43l-160 1l-77 -326h164zM339 122h-165l-28 -122h-69l164 696h69l-27 -112h161q102 0 138.5 -62.5t15.5 -161.5q-24 -109 -90.5 -174t-168.5 -64z" />
    <glyph glyph-name="germandbls" unicode="&#xdf;" horiz-adv-x="537" 
d="M133 0h-67l125 530q26 110 76 155t143 45q161 0 161 -119q0 -107 -97 -152q-48 -23 -65 -37t-17 -32q0 -19 11.5 -31.5t50.5 -36.5q55 -34 73 -56.5t18 -70.5q0 -94 -58 -149.5t-162 -55.5q-24 0 -55 5t-50 9l-18 5l13 55q66 -13 107 -13q72 0 112 37.5t40 99.5
q0 29 -14.5 45.5t-62.5 46.5q-43 26 -59 47t-16 51q0 41 21.5 65.5t79.5 54.5q42 21 59.5 44.5t17.5 60.5q0 66 -95 66q-66 0 -99 -33.5t-52 -114.5z" />
    <glyph glyph-name="agrave" unicode="&#xe0;" horiz-adv-x="498" 
d="M510 346l-17 -66l-33 -147q-12 -53 43 -91l-17 -52q-70 27 -91 77q-10 -9 -27.5 -21.5t-63.5 -34t-84 -21.5q-59 0 -91 34t-32 92q0 163 211 180l124 10l9 40q12 51 -9.5 76.5t-69.5 25.5q-32 0 -77.5 -4t-74.5 -8l-30 -4l-3 53q103 25 196 25q79 0 117 -44t20 -120z
M420 254l-108 -10q-74 -8 -109 -35.5t-35 -86.5q0 -71 65 -71q32 0 71.5 19.5t62.5 39.5l23 19zM338 739l181 -93l-31 -49l-184 87z" />
    <glyph glyph-name="aacute" unicode="&#xe1;" horiz-adv-x="498" 
d="M510 346l-17 -66l-33 -147q-12 -53 43 -91l-17 -52q-70 27 -91 77q-10 -9 -27.5 -21.5t-63.5 -34t-84 -21.5q-59 0 -91 34t-32 92q0 163 211 180l124 10l9 40q12 51 -9.5 76.5t-69.5 25.5q-32 0 -77.5 -4t-74.5 -8l-30 -4l-3 53q103 25 196 25q79 0 117 -44t20 -120z
M420 254l-108 -10q-74 -8 -109 -35.5t-35 -86.5q0 -71 65 -71q32 0 71.5 19.5t62.5 39.5l23 19zM340 598l-6 54l224 93l7 -61z" />
    <glyph glyph-name="acircumflex" unicode="&#xe2;" horiz-adv-x="498" 
d="M510 346l-17 -66l-33 -147q-12 -53 43 -91l-17 -52q-70 27 -91 77q-10 -9 -27.5 -21.5t-63.5 -34t-84 -21.5q-59 0 -91 34t-32 92q0 163 211 180l124 10l9 40q12 51 -9.5 76.5t-69.5 25.5q-32 0 -77.5 -4t-74.5 -8l-30 -4l-3 53q103 25 196 25q79 0 117 -44t20 -120z
M420 254l-108 -10q-74 -8 -109 -35.5t-35 -86.5q0 -71 65 -71q32 0 71.5 19.5t62.5 39.5l23 19zM243 588l154 149h49l87 -149h-71l-50 88l-92 -88h-77z" />
    <glyph glyph-name="atilde" unicode="&#xe3;" horiz-adv-x="498" 
d="M510 346l-17 -66l-33 -147q-12 -53 43 -91l-17 -52q-70 27 -91 77q-10 -9 -27.5 -21.5t-63.5 -34t-84 -21.5q-59 0 -91 34t-32 92q0 163 211 180l124 10l9 40q12 51 -9.5 76.5t-69.5 25.5q-32 0 -77.5 -4t-74.5 -8l-30 -4l-3 53q103 25 196 25q79 0 117 -44t20 -120z
M420 254l-108 -10q-74 -8 -109 -35.5t-35 -86.5q0 -71 65 -71q32 0 71.5 19.5t62.5 39.5l23 19zM572 718l5 -52q-50 -50 -92 -50q-21 0 -68 24.5t-60 24.5q-10 0 -30 -11t-35 -22l-15 -11l-2 53q55 52 97 52q23 0 69 -24t57 -24q8 0 26.5 10t33.5 20z" />
    <glyph glyph-name="adieresis" unicode="&#xe4;" horiz-adv-x="498" 
d="M510 346l-17 -66l-33 -147q-12 -53 43 -91l-17 -52q-70 27 -91 77q-10 -9 -27.5 -21.5t-63.5 -34t-84 -21.5q-59 0 -91 34t-32 92q0 163 211 180l124 10l9 40q12 51 -9.5 76.5t-69.5 25.5q-32 0 -77.5 -4t-74.5 -8l-30 -4l-3 53q103 25 196 25q79 0 117 -44t20 -120z
M420 254l-108 -10q-74 -8 -109 -35.5t-35 -86.5q0 -71 65 -71q32 0 71.5 19.5t62.5 39.5l23 19zM268 622l21 89h64l-21 -89h-64zM456 622l20 89h64l-21 -89h-63z" />
    <glyph glyph-name="aring" unicode="&#xe5;" horiz-adv-x="498" 
d="M510 346l-17 -66l-33 -147q-12 -53 43 -91l-17 -52q-70 27 -91 77q-10 -9 -27.5 -21.5t-63.5 -34t-84 -21.5q-59 0 -91 34t-32 92q0 163 211 180l124 10l9 40q12 51 -9.5 76.5t-69.5 25.5q-32 0 -77.5 -4t-74.5 -8l-30 -4l-3 53q103 25 196 25q79 0 117 -44t20 -120z
M420 254l-108 -10q-74 -8 -109 -35.5t-35 -86.5q0 -71 65 -71q32 0 71.5 19.5t62.5 39.5l23 19zM337 663q8 40 39.5 68.5t75.5 28.5q37 0 54 -22.5t13 -61.5q-4 -48 -37 -79t-79 -31q-43 0 -59 27t-7 70zM380 663q-5 -20 5.5 -35.5t30.5 -15.5q21 0 37.5 14.5t21.5 36.5
q5 19 -5 34t-30 15q-21 0 -38 -14.5t-22 -34.5z" />
    <glyph glyph-name="ae" unicode="&#xe6;" horiz-adv-x="752" 
d="M531 56q31 0 74.5 2t71.5 4l28 3l-12 -59q-102 -16 -180 -16q-96 0 -127 55q-47 -20 -112.5 -37.5t-108.5 -17.5q-62 0 -86.5 45t-11.5 108q14 69 58.5 102t117.5 45q78 12 153 15q45 136 -47 136q-31 0 -76 -2.5t-75 -5.5l-29 -3l11 65q113 15 186 15q44 0 73.5 -19.5
t36.5 -56.5q61 76 168 76q140 0 143 -135q0 -53 -14 -103l-14 -53l-309 2q-11 -57 -10 -82q2 -41 23 -62t68 -21zM188 54q63 0 182 39q-10 49 14 154q-90 -8 -142 -16q-85 -11 -103 -86q-9 -35 2 -63t47 -28zM463 279l244 -2q13 51 12 87q-3 82 -91 82q-63 0 -103.5 -40
t-61.5 -127z" />
    <glyph glyph-name="ccedilla" unicode="&#xe7;" horiz-adv-x="405" 
d="M356 510q25 0 55.5 -4.5t48.5 -9.5l19 -4l-18 -54q-64 11 -107 11q-62 0 -106.5 -45t-63.5 -110t-19 -141q0 -51 24.5 -76.5t80.5 -25.5q17 0 45 3.5t47 7.5l20 4l-4 -55q-69 -21 -130 -21l-10 -36h6q99 0 81 -78q-20 -86 -107 -86q-19 0 -38.5 2t-29.5 4l-11 1l12 48
q37 -3 64 -3q41 0 51 37q8 34 -34 34h-41l19 80q-117 17 -117 148q0 99 27.5 180.5t88.5 135t147 53.5z" />
    <glyph glyph-name="egrave" unicode="&#xe8;" horiz-adv-x="460" 
d="M260 52q33 0 74 6t66 12l25 5l-6 -56q-88 -29 -177 -29q-72 0 -111.5 38t-39.5 112q0 67 16.5 131t48 118.5t85 87.5t120.5 33q146 0 146 -119q0 -89 -67.5 -124.5t-213.5 -35.5h-53q-11 -48 -11 -85q0 -45 26.5 -69.5t71.5 -24.5zM183 286h57q101 0 149 23t48 80
q0 63 -79 63q-126 0 -175 -166zM258 739l181 -93l-31 -49l-184 87z" />
    <glyph glyph-name="eacute" unicode="&#xe9;" horiz-adv-x="460" 
d="M260 52q33 0 74 6t66 12l25 5l-6 -56q-88 -29 -177 -29q-72 0 -111.5 38t-39.5 112q0 67 16.5 131t48 118.5t85 87.5t120.5 33q146 0 146 -119q0 -89 -67.5 -124.5t-213.5 -35.5h-53q-11 -48 -11 -85q0 -45 26.5 -69.5t71.5 -24.5zM183 286h57q101 0 149 23t48 80
q0 63 -79 63q-126 0 -175 -166zM302 598l-6 54l224 93l7 -61z" />
    <glyph glyph-name="ecircumflex" unicode="&#xea;" horiz-adv-x="460" 
d="M223 588l153 149h50l86 -149h-71l-50 88l-91 -88h-77zM260 52q33 0 74 6t66 12l25 5l-6 -56q-88 -29 -177 -29q-72 0 -111.5 38t-39.5 112q0 67 16.5 131t48 118.5t85 87.5t120.5 33q146 0 146 -119q0 -89 -67.5 -124.5t-213.5 -35.5h-53q-11 -48 -11 -85
q0 -45 26.5 -69.5t71.5 -24.5zM183 286h57q101 0 149 23t48 80q0 63 -79 63q-126 0 -175 -166z" />
    <glyph glyph-name="edieresis" unicode="&#xeb;" horiz-adv-x="460" 
d="M256 622l21 89h65l-21 -89h-65zM445 622l19 89h65l-21 -89h-63zM260 52q33 0 74 6t66 12l25 5l-6 -56q-88 -29 -177 -29q-72 0 -111.5 38t-39.5 112q0 67 16.5 131t48 118.5t85 87.5t120.5 33q146 0 146 -119q0 -89 -67.5 -124.5t-213.5 -35.5h-53q-11 -48 -11 -85
q0 -45 26.5 -69.5t71.5 -24.5zM183 286h57q101 0 149 23t48 80q0 63 -79 63q-126 0 -175 -166z" />
    <glyph glyph-name="igrave" unicode="&#xec;" horiz-adv-x="203" 
d="M67 0l115 500h70l-116 -500h-69zM111 739l181 -93l-31 -49l-184 87z" />
    <glyph glyph-name="iacute" unicode="&#xed;" horiz-adv-x="203" 
d="M67 0l115 500h70l-116 -500h-69zM195 598l-6 54l224 93l7 -61z" />
    <glyph glyph-name="icircumflex" unicode="&#xee;" horiz-adv-x="203" 
d="M85 588l154 149h49l87 -149h-71l-50 88l-92 -88h-77zM67 0l115 500h70l-116 -500h-69z" />
    <glyph glyph-name="idieresis" unicode="&#xef;" horiz-adv-x="203" 
d="M105 622l20 89h65l-21 -89h-64zM293 622l19 89h65l-21 -89h-63zM67 0l115 500h70l-116 -500h-69z" />
    <glyph glyph-name="eth" unicode="&#xf0;" horiz-adv-x="516" 
d="M394 598l-115 -73l-26 43l91 58q-36 15 -95 34l27 63q80 -17 142 -50l106 68l26 -44l-85 -54q129 -101 86 -285q-46 -193 -118.5 -280t-184.5 -87q-92 0 -133.5 50.5t-32.5 123.5q9 119 82 192t174 73q32 0 69 -9t59 -18l21 -9q22 130 -93 204zM328 363q-70 0 -119 -56
t-53 -139q-10 -108 107 -108q142 0 210 267q-7 4 -24.5 10.5t-54.5 16t-66 9.5z" />
    <glyph glyph-name="ntilde" unicode="&#xf1;" horiz-adv-x="497" 
d="M136 0h-69l115 500h68l-19 -91q3 4 9 11t24 24.5t36.5 30.5t45 24t50.5 11q57 0 87 -34t30 -91q0 -50 -20 -130l-59 -255h-69l58 250q19 78 19 122q0 76 -71 76q-31 0 -70.5 -29t-63.5 -58l-24 -29zM550 718l5 -52q-50 -50 -92 -50q-21 0 -68 24.5t-60 24.5
q-10 0 -30 -11t-35 -22l-15 -11l-2 53q55 52 97 52q23 0 69 -24t57 -24q8 0 26.5 10t33.5 20z" />
    <glyph glyph-name="ograve" unicode="&#xf2;" horiz-adv-x="494" 
d="M343 510q172 0 172 -169q0 -145 -70 -248t-184 -103q-169 0 -169 162q0 146 71.5 252t179.5 106zM261 51q81 0 132.5 86t51.5 205q0 50 -25.5 78.5t-76.5 28.5q-79 0 -130 -89t-51 -208q0 -101 99 -101zM286 739l181 -93l-31 -49l-184 87z" />
    <glyph glyph-name="oacute" unicode="&#xf3;" horiz-adv-x="494" 
d="M343 510q172 0 172 -169q0 -145 -70 -248t-184 -103q-169 0 -169 162q0 146 71.5 252t179.5 106zM261 51q81 0 132.5 86t51.5 205q0 50 -25.5 78.5t-76.5 28.5q-79 0 -130 -89t-51 -208q0 -101 99 -101zM303 598l-6 54l224 93l7 -61z" />
    <glyph glyph-name="ocircumflex" unicode="&#xf4;" horiz-adv-x="494" 
d="M238 588l154 149h49l87 -149h-71l-50 88l-92 -88h-77zM343 510q172 0 172 -169q0 -145 -70 -248t-184 -103q-169 0 -169 162q0 146 71.5 252t179.5 106zM261 51q81 0 132.5 86t51.5 205q0 50 -25.5 78.5t-76.5 28.5q-79 0 -130 -89t-51 -208q0 -101 99 -101z" />
    <glyph glyph-name="otilde" unicode="&#xf5;" horiz-adv-x="494" 
d="M343 510q172 0 172 -169q0 -145 -70 -248t-184 -103q-169 0 -169 162q0 146 71.5 252t179.5 106zM261 51q81 0 132.5 86t51.5 205q0 50 -25.5 78.5t-76.5 28.5q-79 0 -130 -89t-51 -208q0 -101 99 -101zM536 718l5 -52q-50 -50 -92 -50q-21 0 -68 24.5t-60 24.5
q-10 0 -30 -11t-35 -22l-15 -11l-2 53q55 52 97 52q23 0 69 -24t57 -24q8 0 26.5 10t33.5 20z" />
    <glyph glyph-name="odieresis" unicode="&#xf6;" horiz-adv-x="494" 
d="M343 510q172 0 172 -169q0 -145 -70 -248t-184 -103q-169 0 -169 162q0 146 71.5 252t179.5 106zM261 51q81 0 132.5 86t51.5 205q0 50 -25.5 78.5t-76.5 28.5q-79 0 -130 -89t-51 -208q0 -101 99 -101zM265 622l21 89h58l-21 -89h-58zM447 622l19 89h58l-21 -89h-56z
" />
    <glyph glyph-name="divide" unicode="&#xf7;" 
d="M170 275v69h75v66h186v-66h74v-69h-335zM302 31v98h71v-98h-71z" />
    <glyph glyph-name="oslash" unicode="&#xf8;" horiz-adv-x="493" 
d="M344 512q50 0 86 -15l67 108l43 -19l-72 -113q48 -43 48 -130q0 -145 -70 -248t-184 -103q-50 0 -87 14l-72 -117l-42 18l77 122q-45 40 -45 125q0 146 71.5 252t179.5 106zM262 53q81 0 132.5 86t51.5 205q0 39 -17 67l-109 -171l-110 -177q20 -10 52 -10zM178 91
l106 168l112 181q-22 11 -52 11q-79 0 -130 -89t-51 -208q0 -39 15 -63z" />
    <glyph glyph-name="ugrave" unicode="&#xf9;" horiz-adv-x="497" 
d="M288 739l181 -93l-31 -49l-184 87zM475 500h70l-116 -500h-67l19 91q-3 -4 -9 -11t-24 -24.5t-36.5 -30.5t-45 -24t-50.5 -11q-57 0 -87 34t-30 91q0 45 19 130l60 255h69l-58 -250q-19 -78 -19 -122q0 -76 70 -76q31 0 70.5 29t63.5 58l24 29z" />
    <glyph glyph-name="uacute" unicode="&#xfa;" horiz-adv-x="497" 
d="M475 500h70l-116 -500h-67l19 91q-3 -4 -9 -11t-24 -24.5t-36.5 -30.5t-45 -24t-50.5 -11q-57 0 -87 34t-30 91q0 45 19 130l60 255h69l-58 -250q-19 -78 -19 -122q0 -76 70 -76q31 0 70.5 29t63.5 58l24 29zM315 598l-6 54l224 93l7 -61z" />
    <glyph glyph-name="ucircumflex" unicode="&#xfb;" horiz-adv-x="497" 
d="M222 588l153 149h50l86 -149h-71l-50 88l-91 -88h-77zM475 500h70l-116 -500h-67l19 91q-3 -4 -9 -11t-24 -24.5t-36.5 -30.5t-45 -24t-50.5 -11q-57 0 -87 34t-30 91q0 45 19 130l60 255h69l-58 -250q-19 -78 -19 -122q0 -76 70 -76q31 0 70.5 29t63.5 58l24 29z" />
    <glyph glyph-name="udieresis" unicode="&#xfc;" horiz-adv-x="497" 
d="M251 622l21 89h64l-21 -89h-64zM439 622l20 89h64l-21 -89h-63zM475 500h70l-116 -500h-67l19 91q-3 -4 -9 -11t-24 -24.5t-36.5 -30.5t-45 -24t-50.5 -11q-57 0 -87 34t-30 91q0 45 19 130l60 255h69l-58 -250q-19 -78 -19 -122q0 -76 70 -76q31 0 70.5 29t63.5 58
l24 29z" />
    <glyph glyph-name="yacute" unicode="&#xfd;" horiz-adv-x="454" 
d="M140 500h69l10 -440h31l222 440h72l-368 -722h-71l116 222h-67zM290 598l-6 54l224 93l7 -61z" />
    <glyph glyph-name="thorn" unicode="&#xfe;" horiz-adv-x="482" 
d="M384 510q50 0 80.5 -24.5t39 -64t6.5 -80.5t-14 -83q-38 -141 -99.5 -204.5t-166.5 -63.5q-22 0 -46 2t-38.5 4t-14.5 4l-52 -221h-65l222 938h66l-64 -268q78 61 146 61zM220 379l-74 -314l97 -10q73 0 115 49t71 155q8 28 10 58t-2.5 59t-23.5 48t-50 19q-29 0 -65 -17
t-57 -32z" />
    <glyph glyph-name="ydieresis" unicode="&#xff;" horiz-adv-x="454" 
d="M230 622l21 89h65l-21 -89h-65zM419 622l19 89h65l-21 -89h-63zM140 500h69l10 -440h31l222 440h72l-368 -722h-71l116 222h-67z" />
    <glyph glyph-name="Amacron" unicode="&#x100;" horiz-adv-x="554" 
d="M318 831l12 55h291l-13 -55h-290zM25 0l349 693h141l17 -693h-72l-6 182h-264l-92 -182h-73zM415 630l-195 -386h234l-8 386h-31z" />
    <glyph glyph-name="amacron" unicode="&#x101;" horiz-adv-x="498" 
d="M510 346l-17 -66l-33 -147q-12 -53 43 -91l-17 -52q-70 27 -91 77q-10 -9 -27.5 -21.5t-63.5 -34t-84 -21.5q-59 0 -91 34t-32 92q0 163 211 180l124 10l9 40q12 51 -9.5 76.5t-69.5 25.5q-32 0 -77.5 -4t-74.5 -8l-30 -4l-3 53q103 25 196 25q79 0 117 -44t20 -120z
M420 254l-108 -10q-74 -8 -109 -35.5t-35 -86.5q0 -71 65 -71q32 0 71.5 19.5t62.5 39.5l23 19zM285 640l13 55h272l-13 -55h-272z" />
    <glyph glyph-name="Abreve" unicode="&#x102;" horiz-adv-x="554" 
d="M349 922h62q-6 -39 9.5 -54.5t50.5 -15.5q33 0 59.5 19.5t34.5 50.5h62q-36 -126 -168 -126q-131 0 -110 126zM25 0l349 693h141l17 -693h-72l-6 182h-264l-92 -182h-73zM415 630l-195 -386h234l-8 386h-31z" />
    <glyph glyph-name="abreve" unicode="&#x103;" horiz-adv-x="498" 
d="M510 346l-17 -66l-33 -147q-12 -53 43 -91l-17 -52q-70 27 -91 77q-10 -9 -27.5 -21.5t-63.5 -34t-84 -21.5q-59 0 -91 34t-32 92q0 163 211 180l124 10l9 40q12 51 -9.5 76.5t-69.5 25.5q-32 0 -77.5 -4t-74.5 -8l-30 -4l-3 53q103 25 196 25q79 0 117 -44t20 -120z
M420 254l-108 -10q-74 -8 -109 -35.5t-35 -86.5q0 -71 65 -71q32 0 71.5 19.5t62.5 39.5l23 19zM304 730h61q-9 -35 7 -57t56 -22q78 0 100 79h61q-40 -137 -179 -137q-63 0 -90.5 37.5t-15.5 99.5z" />
    <glyph glyph-name="Aogonek" unicode="&#x104;" horiz-adv-x="554" 
d="M25 0l349 693h141l17 -689v-4h-5q-31 -26 -60 -61.5t-29 -58.5q0 -21 25 -21l50 6l-8 -60q-43 -9 -74 -9q-34 0 -52 16.5t-18 45.5q0 33 31 73t68 70l-6 181h-264l-92 -182h-73zM415 630l-195 -386h234l-8 386h-31z" />
    <glyph glyph-name="aogonek" unicode="&#x105;" horiz-adv-x="498" 
d="M510 346l-17 -66l-33 -147q-12 -53 43 -91l-17 -52q-70 27 -91 77q-10 -9 -27.5 -21.5t-63.5 -34t-84 -21.5q-59 0 -91 34t-32 92q0 163 211 180l124 10l9 40q12 51 -9.5 76.5t-69.5 25.5q-32 0 -77.5 -4t-74.5 -8l-30 -4l-3 53q103 25 196 25q79 0 117 -44t20 -120z
M420 254l-108 -10q-74 -8 -109 -35.5t-35 -86.5q0 -71 65 -71q32 0 71.5 19.5t62.5 39.5l23 19zM417 -135l-8 -60q-43 -9 -74 -9q-34 0 -52 16.5t-18 45.5q0 37 37 81t75 73l59 -8q-30 -24 -62 -61.5t-32 -62.5q0 -21 25 -21z" />
    <glyph glyph-name="Cacute" unicode="&#x106;" horiz-adv-x="504" 
d="M477 71l-4 -59q-89 -22 -168 -22q-192 0 -192 198q0 84 21 171t61 165.5t110 128.5t157 50q35 0 76.5 -5.5t65.5 -11.5l24 -6l-17 -56q-78 15 -153 15q-64 0 -117 -42t-85.5 -108.5t-50 -144t-17.5 -152.5q0 -70 30.5 -104t96.5 -34q35 0 75.5 4t63.5 8zM413 786l-12 54
l228 94l13 -64z" />
    <glyph glyph-name="cacute" unicode="&#x107;" horiz-adv-x="405" 
d="M356 510q25 0 55.5 -4.5t48.5 -9.5l19 -4l-18 -54q-64 11 -107 11q-62 0 -106.5 -45t-63.5 -110t-19 -141q0 -51 24.5 -76.5t80.5 -25.5q17 0 45 3.5t47 7.5l20 4l-4 -55q-69 -21 -130 -21q-77 0 -116 39t-39 112q0 99 27.5 180.5t88.5 135t147 53.5zM296 598l-6 54
l224 93l7 -61z" />
    <glyph glyph-name="Ccircumflex" unicode="&#x108;" horiz-adv-x="504" 
d="M477 71l-4 -59q-89 -22 -168 -22q-192 0 -192 198q0 84 21 171t61 165.5t110 128.5t157 50q35 0 76.5 -5.5t65.5 -11.5l24 -6l-17 -56q-78 15 -153 15q-64 0 -117 -42t-85.5 -108.5t-50 -144t-17.5 -152.5q0 -70 30.5 -104t96.5 -34q35 0 75.5 4t63.5 8zM339 795l163 136
h37l97 -136h-65l-57 82l-99 -82h-76z" />
    <glyph glyph-name="ccircumflex" unicode="&#x109;" horiz-adv-x="405" 
d="M356 510q25 0 55.5 -4.5t48.5 -9.5l19 -4l-18 -54q-64 11 -107 11q-62 0 -106.5 -45t-63.5 -110t-19 -141q0 -51 24.5 -76.5t80.5 -25.5q17 0 45 3.5t47 7.5l20 4l-4 -55q-69 -21 -130 -21q-77 0 -116 39t-39 112q0 99 27.5 180.5t88.5 135t147 53.5zM229 588l153 149h38
l86 -149h-65l-50 88l-91 -88h-71z" />
    <glyph glyph-name="Cdotaccent" unicode="&#x10a;" horiz-adv-x="504" 
d="M477 71l-4 -59q-89 -22 -168 -22q-192 0 -192 198q0 84 21 171t61 165.5t110 128.5t157 50q35 0 76.5 -5.5t65.5 -11.5l24 -6l-17 -56q-78 15 -153 15q-64 0 -117 -42t-85.5 -108.5t-50 -144t-17.5 -152.5q0 -70 30.5 -104t96.5 -34q35 0 75.5 4t63.5 8zM454 794l19 86
h59l-19 -86h-59z" />
    <glyph glyph-name="cdotaccent" unicode="&#x10b;" horiz-adv-x="405" 
d="M356 510q25 0 55.5 -4.5t48.5 -9.5l19 -4l-18 -54q-64 11 -107 11q-62 0 -106.5 -45t-63.5 -110t-19 -141q0 -51 24.5 -76.5t80.5 -25.5q17 0 45 3.5t47 7.5l20 4l-4 -55q-69 -21 -130 -21q-77 0 -116 39t-39 112q0 99 27.5 180.5t88.5 135t147 53.5zM336 607l20 85h60
l-20 -85h-60z" />
    <glyph glyph-name="Ccaron" unicode="&#x10c;" horiz-adv-x="504" 
d="M477 71l-4 -59q-89 -22 -168 -22q-192 0 -192 198q0 84 21 171t61 165.5t110 128.5t157 50q35 0 76.5 -5.5t65.5 -11.5l24 -6l-17 -56q-78 15 -153 15q-64 0 -117 -42t-85.5 -108.5t-50 -144t-17.5 -152.5q0 -70 30.5 -104t96.5 -34q35 0 75.5 4t63.5 8zM665 930
l-157 -136h-43l-97 136h69l60 -85l96 85h72z" />
    <glyph glyph-name="ccaron" unicode="&#x10d;" horiz-adv-x="405" 
d="M391 588h-39l-85 149h64l53 -91l94 91h70zM356 510q25 0 55.5 -4.5t48.5 -9.5l19 -4l-18 -54q-64 11 -107 11q-62 0 -106.5 -45t-63.5 -110t-19 -141q0 -51 24.5 -76.5t80.5 -25.5q17 0 45 3.5t47 7.5l20 4l-4 -55q-69 -21 -130 -21q-77 0 -116 39t-39 112
q0 99 27.5 180.5t88.5 135t147 53.5z" />
    <glyph glyph-name="Dcaron" unicode="&#x10e;" horiz-adv-x="607" 
d="M318 0h-239l160 693h223q94 0 141.5 -49.5t47.5 -156.5q0 -65 -12 -131.5t-39 -130.5t-65 -114t-94.5 -80.5t-122.5 -30.5zM576 487q0 75 -30.5 109t-97.5 34h-152l-130 -567h162q59 0 108.5 42.5t78.5 108t45 137t16 136.5zM625 930l-157 -136h-43l-97 136h69l60 -85
l96 85h72z" />
    <glyph glyph-name="dcaron" unicode="&#x10f;" horiz-adv-x="544" 
d="M714 693l-54 -231h-64l55 231h63zM597 719l-167 -719h-68l21 92q-3 -4 -9 -11t-24.5 -24.5t-37.5 -31t-46 -24.5t-52 -11q-124 0 -124 144q0 88 28 172.5t87 144t134 59.5q27 0 60.5 -4.5t54.5 -9.5l20 -4l53 227h70zM401 173l60 261q-66 15 -122 15q-54 0 -96.5 -53
t-62 -123.5t-19.5 -138.5q0 -83 75 -83q31 0 72 30.5t67 60.5z" />
    <glyph glyph-name="Dcroat" unicode="&#x110;" horiz-adv-x="611" 
d="M322 0h-239l72 312h-68l14 72h70l72 309h223q94 0 141.5 -49.5t47.5 -156.5q0 -65 -12 -131.5t-39 -130.5t-65 -114t-94.5 -80.5t-122.5 -30.5zM580 487q0 75 -30.5 109t-97.5 34h-152l-57 -246h144l-17 -72h-143l-57 -249h162q59 0 108.5 42.5t78.5 108t45 137t16 136.5
z" />
    <glyph glyph-name="dcroat" unicode="&#x111;" horiz-adv-x="497" 
d="M597 719l-14 -61h55l-16 -66h-55l-137 -592h-68l21 92q-3 -4 -9 -11t-24.5 -24.5t-37.5 -31t-46 -24.5t-52 -11q-124 0 -124 144q0 88 28 172.5t87 144t134 59.5q27 0 60.5 -4.5t54.5 -9.5l20 -4l23 100h-146l14 66h148l14 61h70zM401 173l60 261q-66 15 -122 15
q-54 0 -96.5 -53t-62 -123.5t-19.5 -138.5q0 -83 75 -83q31 0 72 30.5t67 60.5z" />
    <glyph glyph-name="Emacron" unicode="&#x112;" horiz-adv-x="505" 
d="M309 825l12 55h291l-13 -55h-290zM79 0l160 693h384l-15 -63h-312l-57 -246h257l-15 -63h-257l-59 -258h313l-14 -63h-385z" />
    <glyph glyph-name="emacron" unicode="&#x113;" horiz-adv-x="460" 
d="M260 52q33 0 74 6t66 12l25 5l-6 -56q-88 -29 -177 -29q-72 0 -111.5 38t-39.5 112q0 67 16.5 131t48 118.5t85 87.5t120.5 33q146 0 146 -119q0 -89 -67.5 -124.5t-213.5 -35.5h-53q-11 -48 -11 -85q0 -45 26.5 -69.5t71.5 -24.5zM183 286h57q101 0 149 23t48 80
q0 63 -79 63q-126 0 -175 -166zM258 640l13 55h272l-13 -55h-272z" />
    <glyph glyph-name="Ebreve" unicode="&#x114;" horiz-adv-x="505" 
d="M334 923h62q-6 -39 9.5 -54.5t50.5 -15.5q33 0 59.5 19.5t34.5 50.5h62q-36 -126 -168 -126q-131 0 -110 126zM79 0l160 693h384l-15 -63h-312l-57 -246h257l-15 -63h-257l-59 -258h313l-14 -63h-385z" />
    <glyph glyph-name="ebreve" unicode="&#x115;" horiz-adv-x="460" 
d="M260 52q33 0 74 6t66 12l25 5l-6 -56q-88 -29 -177 -29q-72 0 -111.5 38t-39.5 112q0 67 16.5 131t48 118.5t85 87.5t120.5 33q146 0 146 -119q0 -89 -67.5 -124.5t-213.5 -35.5h-53q-11 -48 -11 -85q0 -45 26.5 -69.5t71.5 -24.5zM183 286h57q101 0 149 23t48 80
q0 63 -79 63q-126 0 -175 -166zM272 730h61q-9 -35 7 -57t56 -22q78 0 100 79h61q-40 -137 -179 -137q-63 0 -90.5 37.5t-15.5 99.5z" />
    <glyph glyph-name="Edotaccent" unicode="&#x116;" horiz-adv-x="505" 
d="M422 834l19 86h59l-19 -86h-59zM79 0l160 693h384l-15 -63h-312l-57 -246h257l-15 -63h-257l-59 -258h313l-14 -63h-385z" />
    <glyph glyph-name="edotaccent" unicode="&#x117;" horiz-adv-x="460" 
d="M260 52q33 0 74 6t66 12l25 5l-6 -56q-88 -29 -177 -29q-72 0 -111.5 38t-39.5 112q0 67 16.5 131t48 118.5t85 87.5t120.5 33q146 0 146 -119q0 -89 -67.5 -124.5t-213.5 -35.5h-53q-11 -48 -11 -85q0 -45 26.5 -69.5t71.5 -24.5zM183 286h57q101 0 149 23t48 80
q0 63 -79 63q-126 0 -175 -166zM341 607l20 85h60l-20 -85h-60z" />
    <glyph glyph-name="Eogonek" unicode="&#x118;" horiz-adv-x="505" 
d="M79 0l160 693h384l-15 -63h-312l-57 -246h257l-15 -63h-257l-59 -258h313l-14 -63h-22q-31 -26 -60 -61.5t-29 -58.5q0 -21 25 -21l50 6l-8 -60q-43 -9 -74 -9q-34 0 -52 16.5t-18 45.5q0 60 97 142h-294z" />
    <glyph glyph-name="eogonek" unicode="&#x119;" horiz-adv-x="460" 
d="M397 -115l-8 -60q-43 -9 -74 -9q-34 0 -52 16.5t-18 45.5q0 49 71 118q-48 -6 -74 -6q-72 0 -111.5 38t-39.5 112q0 67 16.5 131t48 118.5t85 87.5t120.5 33q146 0 146 -119q0 -89 -67.5 -124.5t-213.5 -35.5h-53q-11 -48 -11 -85q0 -45 26.5 -69.5t71.5 -24.5q33 0 74 6
t66 12l25 5l-6 -56l-14 -4q-83 -73 -83 -115q0 -21 25 -21zM183 286h57q101 0 149 23t48 80q0 63 -79 63q-126 0 -175 -166z" />
    <glyph glyph-name="Ecaron" unicode="&#x11a;" horiz-adv-x="505" 
d="M620 936l-157 -136h-43l-97 136h69l60 -85l96 85h72zM79 0l160 693h384l-15 -63h-312l-57 -246h257l-15 -63h-257l-59 -258h313l-14 -63h-385z" />
    <glyph glyph-name="ecaron" unicode="&#x11b;" horiz-adv-x="460" 
d="M260 52q33 0 74 6t66 12l25 5l-6 -56q-88 -29 -177 -29q-72 0 -111.5 38t-39.5 112q0 67 16.5 131t48 118.5t85 87.5t120.5 33q146 0 146 -119q0 -89 -67.5 -124.5t-213.5 -35.5h-53q-11 -48 -11 -85q0 -45 26.5 -69.5t71.5 -24.5zM183 286h57q101 0 149 23t48 80
q0 63 -79 63q-126 0 -175 -166zM400 588h-39l-85 149h64l53 -91l94 91h70z" />
    <glyph glyph-name="Gcircumflex" unicode="&#x11c;" horiz-adv-x="573" 
d="M342 781l154 149h49l87 -149h-71l-50 88l-92 -88h-77zM399 296l15 61h180l-80 -340q-90 -27 -193 -27q-207 0 -207 194q0 75 13 148t41.5 140.5t69 118.5t100.5 81.5t131 30.5q44 0 94 -7.5t77 -15.5l28 -7l-18 -55q-101 22 -190 22q-68 0 -122 -44t-85.5 -113.5
t-47.5 -146.5t-16 -152q0 -131 139 -131q26 0 58 4t50 8l19 4l53 227h-109z" />
    <glyph glyph-name="gcircumflex" unicode="&#x11d;" horiz-adv-x="467" 
d="M194 -236q-81 0 -128 35t-47 96q0 85 133 154q-16 16 -16 43q0 20 13.5 44t26.5 38l14 15q-69 33 -69 119q0 78 54.5 140t146.5 62q23 0 46.5 -4t35.5 -8l12 -4l148 6l-14 -61h-92q18 -27 18 -69q0 -75 -56 -137t-155 -62l-32 3q-32 -42 -32 -69q0 -17 19 -24.5t73 -13.5
q81 -10 116.5 -36.5t35.5 -82.5q0 -76 -68.5 -130t-182.5 -54zM276 8q-55 6 -87 16q-41 -20 -72.5 -51t-31.5 -63q0 -38 29 -62t84 -24q73 0 126 32.5t53 86.5q0 31 -22.5 45t-78.5 20zM273 230q65 0 100.5 44t35.5 91q0 43 -21 64.5t-70 21.5q-59 0 -94.5 -44t-35.5 -95
q0 -82 85 -82zM214 588l153 149h38l86 -149h-65l-50 88l-91 -88h-71z" />
    <glyph glyph-name="Gbreve" unicode="&#x11e;" horiz-adv-x="573" 
d="M378 923h68q-2 -7 -2 -21q0 -25 16.5 -40.5t47.5 -15.5q79 0 101 77h67q-19 -65 -68 -104.5t-119 -39.5q-54 0 -83.5 30t-30.5 77q0 17 3 37zM399 296l15 61h180l-80 -340q-90 -27 -193 -27q-207 0 -207 194q0 75 13 148t41.5 140.5t69 118.5t100.5 81.5t131 30.5
q44 0 94 -7.5t77 -15.5l28 -7l-18 -55q-101 22 -190 22q-68 0 -122 -44t-85.5 -113.5t-47.5 -146.5t-16 -152q0 -131 139 -131q26 0 58 4t50 8l19 4l53 227h-109z" />
    <glyph glyph-name="gbreve" unicode="&#x11f;" horiz-adv-x="467" 
d="M194 -236q-81 0 -128 35t-47 96q0 85 133 154q-16 16 -16 43q0 20 13.5 44t26.5 38l14 15q-69 33 -69 119q0 78 54.5 140t146.5 62q23 0 46.5 -4t35.5 -8l12 -4l148 6l-14 -61h-92q18 -27 18 -69q0 -75 -56 -137t-155 -62l-32 3q-32 -42 -32 -69q0 -17 19 -24.5t73 -13.5
q81 -10 116.5 -36.5t35.5 -82.5q0 -76 -68.5 -130t-182.5 -54zM276 8q-55 6 -87 16q-41 -20 -72.5 -51t-31.5 -63q0 -38 29 -62t84 -24q73 0 126 32.5t53 86.5q0 31 -22.5 45t-78.5 20zM273 230q65 0 100.5 44t35.5 91q0 43 -21 64.5t-70 21.5q-59 0 -94.5 -44t-35.5 -95
q0 -82 85 -82zM269 730h61q-9 -35 7 -57t56 -22q78 0 100 79h61q-40 -137 -179 -137q-63 0 -90.5 37.5t-15.5 99.5z" />
    <glyph glyph-name="Gdotaccent" unicode="&#x120;" horiz-adv-x="573" 
d="M468 802l21 86h65l-19 -86h-67zM399 296l15 61h180l-80 -340q-90 -27 -193 -27q-207 0 -207 194q0 75 13 148t41.5 140.5t69 118.5t100.5 81.5t131 30.5q44 0 94 -7.5t77 -15.5l28 -7l-18 -55q-101 22 -190 22q-68 0 -122 -44t-85.5 -113.5t-47.5 -146.5t-16 -152
q0 -131 139 -131q26 0 58 4t50 8l19 4l53 227h-109z" />
    <glyph glyph-name="gdotaccent" unicode="&#x121;" horiz-adv-x="467" 
d="M194 -236q-81 0 -128 35t-47 96q0 85 133 154q-16 16 -16 43q0 20 13.5 44t26.5 38l14 15q-69 33 -69 119q0 78 54.5 140t146.5 62q23 0 46.5 -4t35.5 -8l12 -4l148 6l-14 -61h-92q18 -27 18 -69q0 -75 -56 -137t-155 -62l-32 3q-32 -42 -32 -69q0 -17 19 -24.5t73 -13.5
q81 -10 116.5 -36.5t35.5 -82.5q0 -76 -68.5 -130t-182.5 -54zM276 8q-55 6 -87 16q-41 -20 -72.5 -51t-31.5 -63q0 -38 29 -62t84 -24q73 0 126 32.5t53 86.5q0 31 -22.5 45t-78.5 20zM273 230q65 0 100.5 44t35.5 91q0 43 -21 64.5t-70 21.5q-59 0 -94.5 -44t-35.5 -95
q0 -82 85 -82zM327 607l20 85h60l-20 -85h-60z" />
    <glyph glyph-name="Gcommaaccent" unicode="&#x122;" horiz-adv-x="573" 
d="M399 296l15 61h180l-80 -340q-90 -27 -193 -27q-207 0 -207 194q0 75 13 148t41.5 140.5t69 118.5t100.5 81.5t131 30.5q44 0 94 -7.5t77 -15.5l28 -7l-18 -55q-101 22 -190 22q-68 0 -122 -44t-85.5 -113.5t-47.5 -146.5t-16 -152q0 -131 139 -131q26 0 58 4t50 8l19 4
l53 227h-109zM174 -280l86 207h65l-94 -207h-57z" />
    <glyph glyph-name="gcommaaccent" unicode="&#x123;" horiz-adv-x="467" 
d="M410 792h57l-87 -208h-65zM194 -236q-81 0 -128 35t-47 96q0 85 133 154q-16 16 -16 43q0 20 13.5 44t26.5 38l14 15q-69 33 -69 119q0 78 54.5 140t146.5 62q23 0 46.5 -4t35.5 -8l12 -4l148 6l-14 -61h-92q18 -27 18 -69q0 -75 -56 -137t-155 -62l-32 3
q-32 -42 -32 -69q0 -17 19 -24.5t73 -13.5q81 -10 116.5 -36.5t35.5 -82.5q0 -76 -68.5 -130t-182.5 -54zM276 8q-55 6 -87 16q-41 -20 -72.5 -51t-31.5 -63q0 -38 29 -62t84 -24q73 0 126 32.5t53 86.5q0 31 -22.5 45t-78.5 20zM273 230q65 0 100.5 44t35.5 91
q0 43 -21 64.5t-70 21.5q-59 0 -94.5 -44t-35.5 -95q0 -82 85 -82z" />
    <glyph glyph-name="Hcircumflex" unicode="&#x124;" horiz-adv-x="624" 
d="M474 0l73 318h-324l-73 -318h-71l160 693h72l-73 -312h324l72 312h71l-160 -693h-71zM338 795l163 136h37l97 -136h-65l-57 82l-99 -82h-76z" />
    <glyph glyph-name="hcircumflex" unicode="&#x125;" horiz-adv-x="497" 
d="M137 0h-70l167 719h69l-71 -310l24 28t58 45t82 28q58 0 88 -34t30 -91q0 -43 -21 -132l-58 -253h-69l58 250q18 74 18 122q0 76 -70 76q-19 0 -42.5 -12t-43 -29t-36.5 -34.5t-27 -29.5l-10 -12zM292 765l163 136h37l97 -136h-65l-57 82l-99 -82h-76z" />
    <glyph glyph-name="Hbar" unicode="&#x126;" horiz-adv-x="639" 
d="M122 504v1l14 64h81l29 124h68l-29 -124h330l29 124h69l-29 -124h80l-17 -65h-78l-116 -504h-68l72 314h-330l-72 -314h-68l115 504h-80zM243 383h330l27 121h-330z" />
    <glyph glyph-name="hbar" unicode="&#x127;" horiz-adv-x="497" 
d="M146 583l14 61h56l18 75h69l-17 -75h147l-15 -61h-146l-40 -174l24 28t58 45t82 28q58 0 88 -34t30 -91q0 -43 -21 -132l-58 -253h-69l58 250q18 74 18 122q0 76 -70 76q-19 0 -42.5 -12t-43 -29t-36.5 -34.5t-27 -29.5l-10 -12l-76 -331h-70l135 583h-56z" />
    <glyph glyph-name="Itilde" unicode="&#x128;" horiz-adv-x="326" 
d="M198 635l14 58h222l-14 -58h-76l-132 -577h76l-13 -58h-222l13 58h75l132 577h-75zM502 909l3 -53q-63 -56 -95 -56q-25 0 -77.5 28.5t-66.5 28.5q-10 0 -31.5 -12.5t-38.5 -24.5l-17 -12l-3 52q67 58 104 58q26 0 77 -28t63 -28q9 0 29.5 12t36.5 24z" />
    <glyph glyph-name="itilde" unicode="&#x129;" horiz-adv-x="203" 
d="M67 0l115 500h70l-116 -500h-69zM390 718l5 -52q-50 -50 -92 -50q-21 0 -68 24.5t-60 24.5q-10 0 -30 -11t-35 -22l-15 -11l-2 53q55 52 97 52q23 0 69 -24t57 -24q8 0 26.5 10t33.5 20z" />
    <glyph glyph-name="Imacron" unicode="&#x12a;" horiz-adv-x="326" 
d="M198 635l14 58h222l-14 -58h-76l-132 -577h76l-13 -58h-222l13 58h75l132 577h-75zM154 835l12 55h291l-13 -55h-290z" />
    <glyph glyph-name="imacron" unicode="&#x12b;" horiz-adv-x="203" 
d="M67 0l115 500h70l-116 -500h-69zM105 640l13 55h272l-13 -55h-272z" />
    <glyph glyph-name="Ibreve" unicode="&#x12c;" horiz-adv-x="326" 
d="M198 635l14 58h222l-14 -58h-76l-132 -577h76l-13 -58h-222l13 58h75l132 577h-75zM229 922h62q-6 -39 9.5 -54.5t50.5 -15.5q33 0 59.5 19.5t34.5 50.5h62q-36 -126 -168 -126q-131 0 -110 126z" />
    <glyph glyph-name="ibreve" unicode="&#x12d;" horiz-adv-x="203" 
d="M67 0l115 500h70l-116 -500h-69zM123 730h61q-9 -35 7 -57t56 -22q78 0 100 79h61q-40 -137 -179 -137q-63 0 -90.5 37.5t-15.5 99.5z" />
    <glyph glyph-name="Iogonek" unicode="&#x12e;" horiz-adv-x="326" 
d="M198 635l14 58h222l-14 -58h-76l-132 -577h76l-13 -58h-85q-31 -20 -64 -57.5t-33 -62.5q0 -21 25 -21l50 6l-7 -60q-44 -9 -75 -9q-69 0 -69 62q0 60 97 142h-61l13 58h75l132 577h-75z" />
    <glyph glyph-name="iogonek" unicode="&#x12f;" horiz-adv-x="204" 
d="M115 -135l-7 -60q-43 -9 -74 -9q-34 0 -52 16.5t-18 45.5q0 35 33 76.5t71 71.5l115 494h70l-116 -500q-33 -24 -64.5 -59.5t-31.5 -60.5q0 -21 25 -21zM207 608l20 87h71l-20 -87h-71z" />
    <glyph glyph-name="Idotaccent" unicode="&#x130;" horiz-adv-x="229" 
d="M198 635l14 58h222l-14 -58h-76l-132 -577h76l-13 -58h-222l13 58h75l132 577h-75zM271 834l19 86h59l-19 -86h-59z" />
    <glyph glyph-name="dotlessi" unicode="&#x131;" horiz-adv-x="204" 
d="M67 0l115 500h70l-116 -500h-69z" />
    <glyph glyph-name="Jcircumflex" unicode="&#x134;" horiz-adv-x="263" 
d="M348 693l-133 -576q-15 -65 -26.5 -97t-34.5 -55t-55.5 -29t-91.5 -6l12 63q63 1 85 23t41 107l131 570h72zM177 795l163 136h37l97 -136h-65l-57 82l-99 -82h-76z" />
    <glyph glyph-name="jcircumflex" unicode="&#x135;" horiz-adv-x="203" 
d="M67 0l115 500h70l-116 -500q-18 -80 -35.5 -114.5t-51 -59t-115.5 -62.5l-23 57q91 46 114 72.5t42 106.5zM90 588l153 149h38l86 -149h-65l-50 88l-91 -88h-71z" />
    <glyph glyph-name="Kcommaaccent" unicode="&#x136;" horiz-adv-x="519" 
d="M145 -280l86 207h65l-94 -207h-57zM426 0l-103 309l-102 -2l-71 -307h-71l160 693h72l-76 -323l94 3l250 320h81l-273 -349l114 -344h-75z" />
    <glyph glyph-name="kcommaaccent" unicode="&#x137;" horiz-adv-x="444" 
d="M93 -280l86 207h65l-94 -207h-57zM137 0h-70l167 719h69l-97 -420l67 3l185 198h81l-214 -231l97 -269h-74l-87 242l-69 -2z" />
    <glyph glyph-name="Lacute" unicode="&#x139;" horiz-adv-x="434" 
d="M317 786l-12 54l228 94l13 -64zM427 0h-348l160 693h72l-146 -630h277z" />
    <glyph glyph-name="lacute" unicode="&#x13a;" horiz-adv-x="212" 
d="M71 0l166 719h70l-166 -719h-70zM250 786l-12 54l228 94l13 -64z" />
    <glyph glyph-name="Lcommaaccent" unicode="&#x13b;" horiz-adv-x="434" 
d="M124 -280l86 207h65l-94 -207h-57zM427 0h-348l160 693h72l-146 -630h277z" />
    <glyph glyph-name="lcommaaccent" unicode="&#x13c;" horiz-adv-x="212" 
d="M-28 -280l86 207h65l-94 -207h-57zM71 0l166 719h70l-166 -719h-70z" />
    <glyph glyph-name="Lcaron" unicode="&#x13d;" horiz-adv-x="452" 
d="M551 693l-54 -231h-64l54 231h64zM427 0h-348l160 693h72l-146 -630h277z" />
    <glyph glyph-name="lcaron" unicode="&#x13e;" horiz-adv-x="254" 
d="M424 693l-54 -231h-64l55 231h63zM71 0l166 719h70l-166 -719h-70z" />
    <glyph glyph-name="Lslash" unicode="&#x141;" horiz-adv-x="435" 
d="M429 0h-348l63 273l-56 -35v1l-23 51l97 60l79 343h72l-67 -290l151 95l22 -52l-191 -120l-61 -263h277z" />
    <glyph glyph-name="lslash" unicode="&#x142;" horiz-adv-x="269" 
d="M96 0l65 283l-67 -42l-24 50l109 68l83 360h70l-72 -310l72 45l23 -51l-112 -70l-77 -333h-70z" />
    <glyph glyph-name="Nacute" unicode="&#x143;" horiz-adv-x="629" 
d="M403 786l-12 54l228 94l13 -64zM79 0l160 693h129l110 -620h20l143 620h69l-160 -693h-124l-113 624h-21l-144 -624h-69z" />
    <glyph glyph-name="nacute" unicode="&#x144;" horiz-adv-x="497" 
d="M136 0h-69l115 500h68l-19 -91q3 4 9 11t24 24.5t36.5 30.5t45 24t50.5 11q57 0 87 -34t30 -91q0 -50 -20 -130l-59 -255h-69l58 250q19 78 19 122q0 76 -71 76q-31 0 -70.5 -29t-63.5 -58l-24 -29zM301 598l-6 54l224 93l7 -61z" />
    <glyph glyph-name="Ncommaaccent" unicode="&#x145;" horiz-adv-x="629" 
d="M195 -280l86 207h65l-94 -207h-57zM79 0l160 693h129l110 -620h20l143 620h69l-160 -693h-124l-113 624h-21l-144 -624h-69z" />
    <glyph glyph-name="ncommaaccent" unicode="&#x146;" horiz-adv-x="497" 
d="M136 0h-69l115 500h68l-19 -91q3 4 9 11t24 24.5t36.5 30.5t45 24t50.5 11q57 0 87 -34t30 -91q0 -50 -20 -130l-59 -255h-69l58 250q19 78 19 122q0 76 -71 76q-31 0 -70.5 -29t-63.5 -58l-24 -29zM128 -280l86 207h65l-94 -207h-57z" />
    <glyph glyph-name="Ncaron" unicode="&#x147;" horiz-adv-x="629" 
d="M666 926l-157 -136h-43l-97 136h69l60 -85l96 85h72zM79 0l160 693h129l110 -620h20l143 620h69l-160 -693h-124l-113 624h-21l-144 -624h-69z" />
    <glyph glyph-name="ncaron" unicode="&#x148;" horiz-adv-x="497" 
d="M136 0h-69l115 500h68l-19 -91q3 4 9 11t24 24.5t36.5 30.5t45 24t50.5 11q57 0 87 -34t30 -91q0 -50 -20 -130l-59 -255h-69l58 250q19 78 19 122q0 76 -71 76q-31 0 -70.5 -29t-63.5 -58l-24 -29zM401 588h-39l-85 149h64l53 -91l94 91h70z" />
    <glyph glyph-name="Eng" unicode="&#x14a;" horiz-adv-x="629" 
d="M684 579l-133 -577q-15 -65 -26 -97t-34 -55t-55 -29t-90 -6l12 64q61 0 83 21.5t41 99.5h-57l-113 624h-21l-144 -624h-68l160 693h130l110 -620h20l116 506l26 114h69l-27 -114h1z" />
    <glyph glyph-name="eng" unicode="&#x14b;" horiz-adv-x="491" 
d="M132 0h-66l117 500h67l-18 -67q85 77 159 77q60 0 87.5 -24.5t30.5 -81.5q3 -44 -20 -145l-61 -260q-22 -91 -62.5 -137t-142.5 -96l-15 62q82 44 111 77.5t47 108.5l58 245q18 80 17 119q-1 34 -18 49.5t-56 15.5q-29 0 -66.5 -18.5t-60.5 -36.5l-22 -18z" />
    <glyph glyph-name="Omacron" unicode="&#x14c;" horiz-adv-x="629" 
d="M335 53q67 0 118 42q69 56 107 169.5t38 227.5q0 77 -35 112.5t-111 35.5q-61 0 -111 -39q-71 -57 -112 -174.5t-41 -225.5q0 -80 33.5 -114t113.5 -34zM327 -10q-111 0 -161.5 48t-50.5 159q0 128 41.5 246.5t117.5 187.5q78 72 184 72q214 0 214 -207
q0 -135 -42.5 -256t-123.5 -188q-76 -62 -179 -62zM354 825l12 55h291l-13 -55h-290z" />
    <glyph glyph-name="omacron" unicode="&#x14d;" horiz-adv-x="494" 
d="M343 510q172 0 172 -169q0 -145 -70 -248t-184 -103q-169 0 -169 162q0 146 71.5 252t179.5 106zM261 51q81 0 132.5 86t51.5 205q0 50 -25.5 78.5t-76.5 28.5q-79 0 -130 -89t-51 -208q0 -101 99 -101zM247 640l13 55h272l-13 -55h-272z" />
    <glyph glyph-name="Obreve" unicode="&#x14e;" horiz-adv-x="629" 
d="M380 923h62q-6 -39 9.5 -54.5t50.5 -15.5q33 0 59.5 19.5t34.5 50.5h62q-36 -126 -168 -126q-131 0 -110 126zM335 53q67 0 118 42q69 56 107 169.5t38 227.5q0 77 -35 112.5t-111 35.5q-61 0 -111 -39q-71 -57 -112 -174.5t-41 -225.5q0 -80 33.5 -114t113.5 -34z
M327 -10q-111 0 -161.5 48t-50.5 159q0 128 41.5 246.5t117.5 187.5q78 72 184 72q214 0 214 -207q0 -135 -42.5 -256t-123.5 -188q-76 -62 -179 -62z" />
    <glyph glyph-name="obreve" unicode="&#x14f;" horiz-adv-x="494" 
d="M343 510q172 0 172 -169q0 -145 -70 -248t-184 -103q-169 0 -169 162q0 146 71.5 252t179.5 106zM261 51q81 0 132.5 86t51.5 205q0 50 -25.5 78.5t-76.5 28.5q-79 0 -130 -89t-51 -208q0 -101 99 -101zM267 730h61q-9 -35 7 -57t56 -22q78 0 100 79h61
q-40 -137 -179 -137q-63 0 -90.5 37.5t-15.5 99.5z" />
    <glyph glyph-name="Ohungarumlaut" unicode="&#x150;" horiz-adv-x="629" 
d="M574 774l-38 30l169 125l43 -31zM386 775l-39 29l171 126l41 -31zM335 53q67 0 118 42q69 56 107 169.5t38 227.5q0 77 -35 112.5t-111 35.5q-61 0 -111 -39q-71 -57 -112 -174.5t-41 -225.5q0 -80 33.5 -114t113.5 -34zM327 -10q-111 0 -161.5 48t-50.5 159
q0 128 41.5 246.5t117.5 187.5q78 72 184 72q214 0 214 -207q0 -135 -42.5 -256t-123.5 -188q-76 -62 -179 -62z" />
    <glyph glyph-name="ohungarumlaut" unicode="&#x151;" horiz-adv-x="494" 
d="M343 510q172 0 172 -169q0 -145 -70 -248t-184 -103q-169 0 -169 162q0 146 71.5 252t179.5 106zM261 51q81 0 132.5 86t51.5 205q0 50 -25.5 78.5t-76.5 28.5q-79 0 -130 -89t-51 -208q0 -101 99 -101zM444 583l-36 39l171 135l39 -40zM263 583l-35 39l169 135l39 -40z
" />
    <glyph glyph-name="OE" unicode="&#x152;" horiz-adv-x="860" 
d="M816 -1h-381q-101 -9 -139 -9q-96 0 -141 43.5t-47 130.5q-1 75 24 181q43 184 121.5 273t211.5 89q66 0 132 -11h383l-15 -70h-316l-58 -239h259l-14 -68l-260 2l-59 -250h316zM318 61q52 0 130 8l133 560q-54 7 -127 7q-103 0 -159 -69t-92 -221q-23 -95 -23 -155
q0 -67 32 -98.5t106 -31.5z" />
    <glyph glyph-name="oe" unicode="&#x153;" horiz-adv-x="803" 
d="M582 56q30 0 73 2t71 4l29 3l-11 -59q-102 -16 -182 -16q-112 0 -134 87q-59 -87 -183 -87q-78 0 -115 29t-40 91q-4 60 16 147q32 131 90 192t171 61q122 0 141 -97q63 97 184 97q143 0 146 -132q3 -45 -13 -104l-16 -55l-311 2q-12 -50 -11 -83q3 -82 95 -82zM259 55
q43 0 73.5 14t50 45.5t30.5 61.5t24 82q19 76 10 120q-12 67 -94 67q-74 0 -113.5 -44t-63.5 -144q-21 -83 -18 -126q2 -40 25 -58t76 -18zM512 279l246 -2q13 54 12 88q-1 42 -23 60.5t-68 18.5q-129 0 -167 -165z" />
    <glyph glyph-name="Racute" unicode="&#x154;" horiz-adv-x="565" 
d="M455 0l-73 263h-171l-61 -263h-71l160 693h213q90 0 133.5 -38.5t43.5 -126.5q0 -109 -54.5 -173t-125.5 -83l77 -272h-71zM554 526q0 57 -25.5 80.5t-84.5 23.5h-148l-71 -304h153q80 0 128 56t48 144zM359 786l-12 54l228 94l13 -64z" />
    <glyph glyph-name="racute" unicode="&#x155;" horiz-adv-x="314" 
d="M67 0l116 500h69l-18 -75q94 67 183 86l-19 -72q-29 -7 -73 -26t-74 -35l-30 -15l-84 -363h-70zM203 598l-6 54l224 93l7 -61z" />
    <glyph glyph-name="Rcommaaccent" unicode="&#x156;" horiz-adv-x="565" 
d="M167 -280l86 207h65l-94 -207h-57zM455 0l-73 263h-171l-61 -263h-71l160 693h213q90 0 133.5 -38.5t43.5 -126.5q0 -109 -54.5 -173t-125.5 -83l77 -272h-71zM554 526q0 57 -25.5 80.5t-84.5 23.5h-148l-71 -304h153q80 0 128 56t48 144z" />
    <glyph glyph-name="rcommaaccent" unicode="&#x157;" horiz-adv-x="314" 
d="M67 0l116 500h69l-18 -75q94 67 183 86l-19 -72q-29 -7 -73 -26t-74 -35l-30 -15l-84 -363h-70zM-27 -280l86 207h65l-94 -207h-57z" />
    <glyph glyph-name="Rcaron" unicode="&#x158;" horiz-adv-x="565" 
d="M612 927l-157 -136h-43l-97 136h69l60 -85l96 85h72zM455 0l-73 263h-171l-61 -263h-71l160 693h213q90 0 133.5 -38.5t43.5 -126.5q0 -109 -54.5 -173t-125.5 -83l77 -272h-71zM554 526q0 57 -25.5 80.5t-84.5 23.5h-148l-71 -304h153q80 0 128 56t48 144z" />
    <glyph glyph-name="rcaron" unicode="&#x159;" horiz-adv-x="314" 
d="M67 0l116 500h69l-18 -75q94 67 183 86l-19 -72q-29 -7 -73 -26t-74 -35l-30 -15l-84 -363h-70zM315 588h-39l-85 149h64l53 -91l94 91h70z" />
    <glyph glyph-name="Sacute" unicode="&#x15a;" horiz-adv-x="500" 
d="M591 676l-13 -54q-105 18 -175 18q-78 0 -122.5 -38.5t-44.5 -111.5q0 -41 25.5 -60t101.5 -45q79 -28 110 -59.5t31 -96.5q0 -112 -67 -175.5t-180 -63.5q-42 0 -92.5 6t-79.5 12l-29 7l13 56q116 -18 191 -18q80 0 125 45t45 125q0 43 -22 62.5t-92 42.5
q-82 27 -117.5 59t-35.5 97q0 103 66 161t177 58q40 0 86 -6.5t72 -13.5zM353 786l-12 54l228 94l13 -64z" />
    <glyph glyph-name="sacute" unicode="&#x15b;" horiz-adv-x="429" 
d="M484 490l-14 -55q-94 14 -158 14q-52 0 -85 -29.5t-33 -71.5q0 -25 19 -37.5t75 -26.5q76 -19 106.5 -40.5t30.5 -72.5q0 -88 -60.5 -134.5t-155.5 -46.5q-34 0 -73.5 5.5t-61.5 10.5l-23 6l13 55q93 -16 153 -16q61 0 99 27t38 79q0 30 -20.5 42t-78.5 25
q-69 17 -100 39t-31 69q0 78 55.5 128t140.5 50q35 0 76 -5t64 -10zM279 598l-6 54l224 93l7 -61z" />
    <glyph glyph-name="Scircumflex" unicode="&#x15c;" horiz-adv-x="500" 
d="M591 676l-13 -54q-105 18 -175 18q-78 0 -122.5 -38.5t-44.5 -111.5q0 -41 25.5 -60t101.5 -45q79 -28 110 -59.5t31 -96.5q0 -112 -67 -175.5t-180 -63.5q-42 0 -92.5 6t-79.5 12l-29 7l13 56q116 -18 191 -18q80 0 125 45t45 125q0 43 -22 62.5t-92 42.5
q-82 27 -117.5 59t-35.5 97q0 103 66 161t177 58q40 0 86 -6.5t72 -13.5zM283 795l163 136h37l97 -136h-65l-57 82l-99 -82h-76z" />
    <glyph glyph-name="scircumflex" unicode="&#x15d;" horiz-adv-x="429" 
d="M484 490l-14 -55q-94 14 -158 14q-52 0 -85 -29.5t-33 -71.5q0 -25 19 -37.5t75 -26.5q76 -19 106.5 -40.5t30.5 -72.5q0 -88 -60.5 -134.5t-155.5 -46.5q-34 0 -73.5 5.5t-61.5 10.5l-23 6l13 55q93 -16 153 -16q61 0 99 27t38 79q0 30 -20.5 42t-78.5 25
q-69 17 -100 39t-31 69q0 78 55.5 128t140.5 50q35 0 76 -5t64 -10zM216 588l153 149h38l86 -149h-65l-50 88l-91 -88h-71z" />
    <glyph glyph-name="Scedilla" unicode="&#x15e;" horiz-adv-x="500" 
d="M591 676l-13 -54q-105 18 -175 18q-78 0 -122.5 -38.5t-44.5 -111.5q0 -41 25.5 -60t101.5 -45q79 -28 110 -59.5t31 -96.5q0 -110 -64.5 -173.5t-174.5 -65.5l-10 -36h6q99 0 81 -78q-20 -86 -107 -86q-19 0 -38.5 2t-30.5 4l-10 1l12 48q37 -3 64 -3q41 0 51 37
q8 34 -34 34h-41l18 78q-38 2 -80.5 8t-65.5 11l-24 5l13 56q116 -18 191 -18q80 0 125 45t45 125q0 43 -22 62.5t-92 42.5q-82 27 -117.5 59t-35.5 97q0 103 66 161t177 58q40 0 86 -6.5t72 -13.5z" />
    <glyph glyph-name="scedilla" unicode="&#x15f;" horiz-adv-x="429" 
d="M297 -124q-20 -86 -107 -86q-19 0 -38.5 2t-29.5 4l-11 1l12 48q37 -3 64 -3q41 0 51 37q8 34 -34 34h-41l18 78q-30 2 -62.5 7t-50.5 10l-17 4l13 55q93 -16 153 -16q61 0 99 27t38 79q0 30 -20.5 42t-78.5 25q-69 17 -100 39t-31 69q0 78 55.5 128t140.5 50q35 0 76 -5
t64 -10l24 -5l-14 -55q-94 14 -158 14q-52 0 -85 -29.5t-33 -71.5q0 -25 19 -37.5t75 -26.5q76 -19 106.5 -40.5t30.5 -72.5q0 -86 -57 -132t-148 -49l-10 -36h6q99 0 81 -78z" />
    <glyph glyph-name="Scaron" unicode="&#x160;" horiz-adv-x="500" 
d="M619 930l-157 -136h-43l-97 136h69l60 -85l96 85h72zM591 676l-13 -54q-105 18 -175 18q-78 0 -122.5 -38.5t-44.5 -111.5q0 -41 25.5 -60t101.5 -45q79 -28 110 -59.5t31 -96.5q0 -112 -67 -175.5t-180 -63.5q-42 0 -92.5 6t-79.5 12l-29 7l13 56q116 -18 191 -18
q80 0 125 45t45 125q0 43 -22 62.5t-92 42.5q-82 27 -117.5 59t-35.5 97q0 103 66 161t177 58q40 0 86 -6.5t72 -13.5z" />
    <glyph glyph-name="scaron" unicode="&#x161;" horiz-adv-x="429" 
d="M484 490l-14 -55q-94 14 -158 14q-52 0 -85 -29.5t-33 -71.5q0 -25 19 -37.5t75 -26.5q76 -19 106.5 -40.5t30.5 -72.5q0 -88 -60.5 -134.5t-155.5 -46.5q-34 0 -73.5 5.5t-61.5 10.5l-23 6l13 55q93 -16 153 -16q61 0 99 27t38 79q0 30 -20.5 42t-78.5 25
q-69 17 -100 39t-31 69q0 78 55.5 128t140.5 50q35 0 76 -5t64 -10zM372 588h-39l-85 149h64l53 -91l94 91h70z" />
    <glyph glyph-name="Tcommaaccent" unicode="&#x162;" horiz-adv-x="470" 
d="M103 -280l86 207h65l-94 -207h-57zM155 630l15 63h448l-15 -63h-188l-146 -630h-71l145 630h-188z" />
    <glyph glyph-name="tcommaaccent" unicode="&#x163;" horiz-adv-x="317" 
d="M401 439h-142l-60 -256q-12 -56 -12 -84q0 -48 51 -48l79 6l-5 -54q-52 -13 -96 -13q-49 0 -75.5 25t-26.5 69q0 38 16 104l59 251h-66l16 61h65l36 150h70l-37 -150h143zM57 -280l86 207h65l-94 -207h-57z" />
    <glyph glyph-name="Tcaron" unicode="&#x164;" horiz-adv-x="470" 
d="M582 927l-157 -136h-43l-97 136h69l60 -85l96 85h72zM155 630l15 63h448l-15 -63h-188l-146 -630h-71l145 630h-188z" />
    <glyph glyph-name="tcaron" unicode="&#x165;" horiz-adv-x="398" 
d="M563 693l-54 -231h-64l55 231h63zM401 439h-142l-60 -256q-12 -56 -12 -84q0 -48 51 -48l79 6l-5 -54q-52 -13 -96 -13q-49 0 -75.5 25t-26.5 69q0 38 16 104l59 251h-66l16 61h65l36 150h70l-37 -150h143z" />
    <glyph glyph-name="Tbar" unicode="&#x166;" horiz-adv-x="475" 
d="M157 630l15 63h448l-15 -63h-188l-62 -266h158l-17 -65h-156l-69 -299h-71l69 299h-154l15 65h154l61 266h-188z" />
    <glyph glyph-name="tbar" unicode="&#x167;" horiz-adv-x="322" 
d="M404 439h-142l-28 -118h137l-15 -62h-136l-18 -76q-12 -56 -12 -84q0 -48 51 -48l79 6l-5 -54q-52 -13 -96 -13q-49 0 -75.5 25t-26.5 69q0 38 16 104l16 71h-54l14 62h55l28 118h-66l16 61h65l36 150h70l-37 -150h143z" />
    <glyph glyph-name="Utilde" unicode="&#x168;" horiz-adv-x="594" 
d="M647 913l3 -53q-63 -56 -95 -56q-25 0 -77.5 28.5t-66.5 28.5q-10 0 -31.5 -12.5t-38.5 -24.5l-17 -12l-3 52q67 58 104 58q26 0 77 -28t63 -28q9 0 29.5 12t36.5 24zM305 693l-111 -478q-9 -41 -9 -73q0 -88 131 -88q80 0 121 37.5t59 118.5l112 483h72l-112 -484
q-26 -113 -86 -166t-171 -53q-93 0 -145.5 36t-52.5 108q0 40 11 89l109 470h72z" />
    <glyph glyph-name="utilde" unicode="&#x169;" horiz-adv-x="497" 
d="M540 718l5 -52q-50 -50 -92 -50q-21 0 -68 24.5t-60 24.5q-10 0 -30 -11t-35 -22l-15 -11l-2 53q55 52 97 52q23 0 69 -24t57 -24q8 0 26.5 10t33.5 20zM475 500h70l-116 -500h-67l19 91q-3 -4 -9 -11t-24 -24.5t-36.5 -30.5t-45 -24t-50.5 -11q-57 0 -87 34t-30 91
q0 45 19 130l60 255h69l-58 -250q-19 -78 -19 -122q0 -76 70 -76q31 0 70.5 29t63.5 58l24 29z" />
    <glyph glyph-name="Umacron" unicode="&#x16a;" horiz-adv-x="594" 
d="M305 693l-111 -478q-9 -41 -9 -73q0 -88 131 -88q80 0 121 37.5t59 118.5l112 483h72l-112 -484q-26 -113 -86 -166t-171 -53q-93 0 -145.5 36t-52.5 108q0 40 11 89l109 470h72zM334 825l12 55h291l-13 -55h-290z" />
    <glyph glyph-name="umacron" unicode="&#x16b;" horiz-adv-x="497" 
d="M475 500h70l-116 -500h-67l19 91q-3 -4 -9 -11t-24 -24.5t-36.5 -30.5t-45 -24t-50.5 -11q-57 0 -87 34t-30 91q0 45 19 130l60 255h69l-58 -250q-19 -78 -19 -122q0 -76 70 -76q31 0 70.5 29t63.5 58l24 29zM246 640l13 55h272l-13 -55h-272z" />
    <glyph glyph-name="Ubreve" unicode="&#x16c;" horiz-adv-x="594" 
d="M356 923h62q-6 -39 9.5 -54.5t50.5 -15.5q33 0 59.5 19.5t34.5 50.5h62q-36 -126 -168 -126q-131 0 -110 126zM305 693l-111 -478q-9 -41 -9 -73q0 -88 131 -88q80 0 121 37.5t59 118.5l112 483h72l-112 -484q-26 -113 -86 -166t-171 -53q-93 0 -145.5 36t-52.5 108
q0 40 11 89l109 470h72z" />
    <glyph glyph-name="ubreve" unicode="&#x16d;" horiz-adv-x="497" 
d="M475 500h70l-116 -500h-67l19 91q-3 -4 -9 -11t-24 -24.5t-36.5 -30.5t-45 -24t-50.5 -11q-57 0 -87 34t-30 91q0 45 19 130l60 255h69l-58 -250q-19 -78 -19 -122q0 -76 70 -76q31 0 70.5 29t63.5 58l24 29zM264 730h61q-9 -35 7 -57t56 -22q78 0 100 79h61
q-40 -137 -179 -137q-63 0 -90.5 37.5t-15.5 99.5z" />
    <glyph glyph-name="Uring" unicode="&#x16e;" horiz-adv-x="594" 
d="M594 841q-11 -46 -44 -72t-82 -26q-47 0 -69 26t-9 72q27 99 126 99q46 0 68 -25t10 -74zM437 841q-5 -21 6 -35t37 -14q56 0 67 49q5 23 -7 36.5t-36 13.5q-54 0 -67 -50zM305 693l-111 -478q-9 -41 -9 -73q0 -88 131 -88q80 0 121 37.5t59 118.5l112 483h72l-112 -484
q-26 -113 -86 -166t-171 -53q-93 0 -145.5 36t-52.5 108q0 40 11 89l109 470h72z" />
    <glyph glyph-name="uring" unicode="&#x16f;" horiz-adv-x="497" 
d="M297 643q8 40 39.5 68.5t75.5 28.5q37 0 54 -22.5t13 -61.5q-4 -48 -37 -79t-79 -31q-43 0 -59 27t-7 70zM340 643q-5 -20 5.5 -35.5t30.5 -15.5q21 0 37.5 14.5t21.5 36.5q5 19 -5 34t-30 15q-21 0 -38 -14.5t-22 -34.5zM475 500h70l-116 -500h-67l19 91q-3 -4 -9 -11
t-24 -24.5t-36.5 -30.5t-45 -24t-50.5 -11q-57 0 -87 34t-30 91q0 45 19 130l60 255h69l-58 -250q-19 -78 -19 -122q0 -76 70 -76q31 0 70.5 29t63.5 58l24 29z" />
    <glyph glyph-name="Uhungarumlaut" unicode="&#x170;" horiz-adv-x="594" 
d="M542 756l-38 30l169 125l43 -31zM354 757l-39 29l171 126l41 -31zM305 693l-111 -478q-9 -41 -9 -73q0 -88 131 -88q80 0 121 37.5t59 118.5l112 483h72l-112 -484q-26 -113 -86 -166t-171 -53q-93 0 -145.5 36t-52.5 108q0 40 11 89l109 470h72z" />
    <glyph glyph-name="uhungarumlaut" unicode="&#x171;" horiz-adv-x="497" 
d="M465 583l-36 39l171 135l39 -40zM284 583l-35 39l169 135l39 -40zM475 500h70l-116 -500h-67l19 91q-3 -4 -9 -11t-24 -24.5t-36.5 -30.5t-45 -24t-50.5 -11q-57 0 -87 34t-30 91q0 45 19 130l60 255h69l-58 -250q-19 -78 -19 -122q0 -76 70 -76q31 0 70.5 29t63.5 58
l24 29z" />
    <glyph glyph-name="Uogonek" unicode="&#x172;" horiz-adv-x="595" 
d="M306 693l-111 -478q-9 -41 -9 -73q0 -88 131 -88q80 0 121 37.5t59 118.5l112 483h72l-112 -484q-23 -97 -69.5 -149.5t-129.5 -64.5q-30 -26 -56 -59.5t-26 -55.5q0 -21 25 -21l50 6l-8 -60q-43 -9 -74 -9q-34 0 -52 16.5t-18 45.5q0 54 86 133q-86 2 -134.5 38
t-48.5 105q0 40 11 89l109 470h72z" />
    <glyph glyph-name="uogonek" unicode="&#x173;" horiz-adv-x="497" 
d="M475 500h70l-116 -500q-30 -21 -62 -58t-32 -62q0 -21 25 -21l50 6l-8 -60q-43 -9 -74 -9q-34 0 -52 16.5t-18 45.5q0 35 33.5 76t71.5 73l18 84q-3 -4 -9 -11t-24 -24.5t-36.5 -30.5t-45 -24t-50.5 -11q-57 0 -87 34t-30 91q0 45 19 130l60 255h69l-58 -250
q-19 -78 -19 -122q0 -76 70 -76q31 0 70.5 29t63.5 58l24 29z" />
    <glyph glyph-name="Wcircumflex" unicode="&#x174;" horiz-adv-x="826" 
d="M437 792l163 136h37l97 -136h-65l-57 82l-99 -82h-76zM188 693h71l-31 -627h28l273 617h78l-18 -617h27l265 627h72l-298 -693h-128l18 577l-253 -577h-131z" />
    <glyph glyph-name="wcircumflex" unicode="&#x175;" horiz-adv-x="728" 
d="M145 500h70l-8 -439h19l209 429h82l6 -429h19l200 439h71l-228 -500h-126l-5 399l-191 -399h-124zM347 588l153 149h38l86 -149h-65l-50 88l-91 -88h-71z" />
    <glyph glyph-name="Ycircumflex" unicode="&#x176;" horiz-adv-x="492" 
d="M275 792l163 136h37l97 -136h-65l-57 82l-99 -82h-76zM639 693l-294 -397l-69 -296h-68l70 303l-107 390h72l84 -327l235 327h77z" />
    <glyph glyph-name="ycircumflex" unicode="&#x177;" horiz-adv-x="454" 
d="M140 500h69l10 -440h31l222 440h72l-368 -722h-71l116 222h-67zM219 588l153 149h38l86 -149h-65l-50 88l-91 -88h-71z" />
    <glyph glyph-name="Ydieresis" unicode="&#x178;" horiz-adv-x="492" 
d="M299 815l20 90h58l-22 -90h-56zM485 815l21 90h58l-22 -90h-57zM639 693l-294 -397l-69 -296h-68l70 303l-107 390h72l84 -327l235 327h77z" />
    <glyph glyph-name="Zacute" unicode="&#x179;" horiz-adv-x="495" 
d="M337 786l-12 54l228 94l13 -64zM185 630l15 63h416l-23 -99l-456 -506l-6 -25h338l-15 -63h-416l22 96l455 506l7 28h-337z" />
    <glyph glyph-name="zacute" unicode="&#x17a;" horiz-adv-x="418" 
d="M139 439l15 61h341l-13 -60l-348 -379h260l-14 -61h-341l10 60l348 379h-258zM260 598l-6 54l224 93l7 -61z" />
    <glyph glyph-name="Zdotaccent" unicode="&#x17b;" horiz-adv-x="495" 
d="M396 834l19 86h59l-19 -86h-59zM185 630l15 63h416l-23 -99l-456 -506l-6 -25h338l-15 -63h-416l22 96l455 506l7 28h-337z" />
    <glyph glyph-name="zdotaccent" unicode="&#x17c;" horiz-adv-x="418" 
d="M139 439l15 61h341l-13 -60l-348 -379h260l-14 -61h-341l10 60l348 379h-258zM309 607l20 85h60l-20 -85h-60z" />
    <glyph glyph-name="Zcaron" unicode="&#x17d;" horiz-adv-x="495" 
d="M604 926l-157 -136h-43l-97 136h69l60 -85l96 85h72zM185 630l15 63h416l-23 -99l-456 -506l-6 -25h338l-15 -63h-416l22 96l455 506l7 28h-337z" />
    <glyph glyph-name="zcaron" unicode="&#x17e;" horiz-adv-x="418" 
d="M354 588h-39l-85 149h64l53 -91l94 91h70zM139 439l15 61h341l-13 -60l-348 -379h260l-14 -61h-341l10 60l348 379h-258z" />
    <glyph glyph-name="florin" unicode="&#x192;" 
d="M370 358l-101 -426q-23 -96 -64.5 -135.5t-108.5 -39.5q-14 0 -31.5 2t-27.5 4l-10 2l14 60q37 -3 63 -3q36 0 59 26t38 89l101 421h-104l14 67h105l13 53q30 117 69.5 162t107.5 45q71 0 111 -10l-16 -61q-69 3 -98 3q-43 0 -66 -35t-43 -119l-9 -38h159l-16 -67h-159z
" />
    <glyph glyph-name="Aringacute" unicode="&#x1fa;" horiz-adv-x="554" 
d="M25 0l337 670q-22 26 -9 72q27 99 126 99q46 0 68 -25t10 -74q-13 -47 -42 -71l17 -671h-72l-6 182h-264l-92 -182h-73zM415 630l-195 -386h234l-8 386h-31zM390 878l-6 54l224 93l7 -61zM400 742q-5 -21 6 -35t37 -14q56 0 67 49q5 23 -7 36.5t-36 13.5q-55 0 -67 -50z
" />
    <glyph glyph-name="aringacute" unicode="&#x1fb;" horiz-adv-x="498" 
d="M510 346l-17 -66l-33 -147q-12 -53 43 -91l-17 -52q-70 27 -91 77q-10 -9 -27.5 -21.5t-63.5 -34t-84 -21.5q-59 0 -91 34t-32 92q0 163 211 180l124 10l9 40q12 51 -9.5 76.5t-69.5 25.5q-32 0 -77.5 -4t-74.5 -8l-30 -4l-3 53q103 25 196 25q79 0 117 -44t20 -120z
M420 254l-108 -10q-74 -8 -109 -35.5t-35 -86.5q0 -71 65 -71q32 0 71.5 19.5t62.5 39.5l23 19zM310 643q8 40 39.5 68.5t75.5 28.5q37 0 54 -22.5t13 -61.5q-4 -48 -37 -79t-79 -31q-43 0 -59 27t-7 70zM344 769l-8 60l224 94l9 -68zM353 643q-5 -20 5.5 -35.5t30.5 -15.5
q21 0 37.5 14.5t21.5 36.5q5 19 -5 34t-30 15q-21 0 -38 -14.5t-22 -34.5z" />
    <glyph glyph-name="AEacute" unicode="&#x1fc;" horiz-adv-x="782" 
d="M351 0l42 181h-206l-93 -181h-68l348 696h528l-15 -67l-319 2l-60 -246h264l-14 -65h-264l-60 -253h319l-15 -67h-387zM409 630l-191 -383h190l92 383h-91zM551 786l-12 54l228 94l13 -64z" />
    <glyph glyph-name="aeacute" unicode="&#x1fd;" horiz-adv-x="752" 
d="M531 56q31 0 74.5 2t71.5 4l28 3l-12 -59q-102 -16 -180 -16q-96 0 -127 55q-47 -20 -112.5 -37.5t-108.5 -17.5q-62 0 -86.5 45t-11.5 108q14 69 58.5 102t117.5 45q78 12 153 15q45 136 -47 136q-31 0 -76 -2.5t-75 -5.5l-29 -3l11 65q113 15 186 15q44 0 73.5 -19.5
t36.5 -56.5q61 76 168 76q140 0 143 -135q0 -53 -14 -103l-14 -53l-309 2q-11 -57 -10 -82q2 -41 23 -62t68 -21zM188 54q63 0 182 39q-10 49 14 154q-90 -8 -142 -16q-85 -11 -103 -86q-9 -35 2 -63t47 -28zM463 279l244 -2q13 51 12 87q-3 82 -91 82q-63 0 -103.5 -40
t-61.5 -127zM434 598l-6 54l224 93l7 -61z" />
    <glyph glyph-name="Oslashacute" unicode="&#x1fe;" horiz-adv-x="631" 
d="M112 -114l-41 25l90 132q-45 49 -45 154q0 128 41.5 246.5t117.5 187.5q78 72 184 72q79 0 131 -29l83 122l46 -20l-91 -133q45 -51 45 -147q0 -135 -42.5 -256t-123.5 -188q-76 -62 -179 -62q-80 0 -129 24zM206 109l166 244l178 263q-34 24 -97 24q-61 0 -111 -39
q-71 -57 -112 -174.5t-41 -225.5q0 -59 17 -92zM336 53q67 0 118 42q69 56 107 169.5t38 227.5q0 49 -16 84l-168 -246l-176 -257q33 -20 97 -20zM423 780l-10 60l225 94l11 -68z" />
    <glyph glyph-name="oslashacute" unicode="&#x1ff;" horiz-adv-x="494" 
d="M343 510q54 0 89 -16l69 111l42 -19l-74 -116q46 -43 46 -129q0 -145 -70 -248t-184 -103q-46 0 -85 13l-70 -114l-42 18l75 118q-47 41 -47 127q0 146 71.5 252t179.5 106zM178 88l109 171l110 178q-21 12 -54 12q-79 0 -130 -89t-51 -208q0 -41 16 -64zM261 51
q81 0 132.5 86t51.5 205q0 40 -16 65l-106 -167l-112 -180q21 -9 50 -9zM295 598l-6 54l224 93l7 -61z" />
    <glyph glyph-name="Scommaaccent" unicode="&#x218;" horiz-adv-x="500" 
d="M128 -280l86 207h65l-94 -207h-57zM591 676l-13 -54q-105 18 -175 18q-78 0 -122.5 -38.5t-44.5 -111.5q0 -41 25.5 -60t101.5 -45q79 -28 110 -59.5t31 -96.5q0 -112 -67 -175.5t-180 -63.5q-42 0 -92.5 6t-79.5 12l-29 7l13 56q116 -18 191 -18q80 0 125 45t45 125
q0 43 -22 62.5t-92 42.5q-82 27 -117.5 59t-35.5 97q0 103 66 161t177 58q40 0 86 -6.5t72 -13.5z" />
    <glyph glyph-name="scommaaccent" unicode="&#x219;" horiz-adv-x="428" 
d="M483 490l-14 -55q-94 14 -158 14q-52 0 -85 -29.5t-33 -71.5q0 -25 19 -37.5t75 -26.5q76 -19 106.5 -40.5t30.5 -72.5q0 -88 -60.5 -134.5t-155.5 -46.5q-34 0 -73.5 5.5t-62.5 10.5l-22 6l13 55q93 -16 153 -16q61 0 99 27t38 79q0 30 -20.5 42t-78.5 25
q-69 17 -100 39t-31 69q0 78 55.5 128t140.5 50q35 0 76 -5t65 -10zM87 -280l86 207h65l-94 -207h-57z" />
    <glyph glyph-name="uni021A" unicode="&#x21a;" horiz-adv-x="470" 
d="M103 -280l86 207h65l-94 -207h-57zM155 630l15 63h448l-15 -63h-188l-146 -630h-71l145 630h-188z" />
    <glyph glyph-name="uni021B" unicode="&#x21b;" horiz-adv-x="317" 
d="M401 439h-142l-60 -256q-12 -56 -12 -84q0 -48 51 -48l79 6l-5 -54q-52 -13 -96 -13q-49 0 -75.5 25t-26.5 69q0 38 16 104l59 251h-66l16 61h65l36 150h70l-37 -150h143zM57 -280l86 207h65l-94 -207h-57z" />
    <glyph glyph-name="dotlessj" unicode="&#x237;" horiz-adv-x="204" 
d="M67 0l115 500h70l-116 -500q-18 -80 -35.5 -114.5t-51 -59t-115.5 -62.5l-23 57q91 46 114 72.5t42 106.5z" />
    <glyph glyph-name="circumflex" unicode="&#x2c6;" horiz-adv-x="791" 
d="M387 588l153 149h38l86 -149h-65l-50 88l-91 -88h-71z" />
    <glyph glyph-name="caron" unicode="&#x2c7;" horiz-adv-x="791" 
d="M544 588h-39l-85 149h64l53 -91l94 91h70z" />
    <glyph glyph-name="breve" unicode="&#x2d8;" horiz-adv-x="437" 
d="M239 730h61q-9 -35 7 -57t56 -22q78 0 100 79h61q-40 -137 -179 -137q-63 0 -90.5 37.5t-15.5 99.5z" />
    <glyph glyph-name="dotaccent" unicode="&#x2d9;" horiz-adv-x="222" 
d="M223 607l20 85h60l-20 -85h-60z" />
    <glyph glyph-name="ring" unicode="&#x2da;" horiz-adv-x="791" 
d="M314 643q8 40 39.5 68.5t75.5 28.5q37 0 54 -22.5t13 -61.5q-4 -48 -37 -79t-79 -31q-43 0 -59 27t-7 70zM357 643q-5 -20 5.5 -35.5t30.5 -15.5q21 0 37.5 14.5t21.5 36.5q5 19 -5 34t-30 15q-21 0 -38 -14.5t-22 -34.5z" />
    <glyph glyph-name="ogonek" unicode="&#x2db;" horiz-adv-x="425" 
d="M294 -135l-8 -60q-43 -9 -74 -9q-34 0 -52 16.5t-18 45.5q0 37 37 81t75 73l59 -8q-30 -24 -62 -61.5t-32 -62.5q0 -21 25 -21z" />
    <glyph glyph-name="tilde" unicode="&#x2dc;" horiz-adv-x="425" 
d="M518 718l5 -52q-50 -50 -92 -50q-21 0 -68 24.5t-60 24.5q-10 0 -30 -11t-35 -22l-15 -11l-2 53q55 52 97 52q23 0 69 -24t57 -24q8 0 26.5 10t33.5 20z" />
    <glyph glyph-name="hungarumlaut" unicode="&#x2dd;" horiz-adv-x="664" 
d="M498 583l-36 39l171 135l39 -40zM317 583l-35 39l169 135l39 -40z" />
    <glyph glyph-name="pi" unicode="&#x3c0;" 
d="M426 154v285h-162l-28 -439h-71l31 439q-30 0 -57 -3.5t-39 -6.5l-13 -3v59q58 15 141 15h234q32 0 65 4t50 8l17 3v-60q-29 -12 -98 -14v-287q0 -59 17.5 -78t70.5 -19v-61q-97 0 -127.5 31t-30.5 127z" />
    <glyph glyph-name="Wgrave" unicode="&#x1e80;" horiz-adv-x="826" 
d="M507 929l177 -99l-26 -47l-185 86zM188 693h71l-31 -627h28l273 617h78l-18 -617h27l265 627h72l-298 -693h-128l18 577l-253 -577h-131z" />
    <glyph glyph-name="wgrave" unicode="&#x1e81;" horiz-adv-x="728" 
d="M384 739l181 -93l-31 -49l-184 87zM145 500h70l-8 -439h19l209 429h82l6 -429h19l200 439h71l-228 -500h-126l-5 399l-191 -399h-124z" />
    <glyph glyph-name="Wacute" unicode="&#x1e82;" horiz-adv-x="826" 
d="M505 786l-12 54l228 94l13 -64zM188 693h71l-31 -627h28l273 617h78l-18 -617h27l265 627h72l-298 -693h-128l18 577l-253 -577h-131z" />
    <glyph glyph-name="wacute" unicode="&#x1e83;" horiz-adv-x="728" 
d="M145 500h70l-8 -439h19l209 429h82l6 -429h19l200 439h71l-228 -500h-126l-5 399l-191 -399h-124zM406 598l-6 54l224 93l7 -61z" />
    <glyph glyph-name="Wdieresis" unicode="&#x1e84;" horiz-adv-x="826" 
d="M469 816l20 90h58l-22 -90h-56zM655 816l21 90h58l-22 -90h-57zM188 693h71l-31 -627h28l273 617h78l-18 -617h27l265 627h72l-298 -693h-128l18 577l-253 -577h-131z" />
    <glyph glyph-name="wdieresis" unicode="&#x1e85;" horiz-adv-x="728" 
d="M145 500h70l-8 -439h19l209 429h82l6 -429h19l200 439h71l-228 -500h-126l-5 399l-191 -399h-124zM374 622l21 89h58l-21 -89h-58zM556 622l19 89h58l-21 -89h-56z" />
    <glyph glyph-name="uni1EAB" unicode="&#x1eab;" horiz-adv-x="498" 
d="M510 346l-17 -66l-33 -147q-12 -53 43 -91l-17 -52q-70 27 -91 77q-10 -9 -27.5 -21.5t-63.5 -34t-84 -21.5q-59 0 -91 34t-32 92q0 163 211 180l124 10l9 40q12 51 -9.5 76.5t-69.5 25.5q-32 0 -77.5 -4t-74.5 -8l-30 -4l-3 53q103 25 196 25q79 0 117 -44t20 -120z
M420 254l-108 -10q-74 -8 -109 -35.5t-35 -86.5q0 -71 65 -71q32 0 71.5 19.5t62.5 39.5l23 19zM591 839l5 -52q-50 -50 -92 -50q-21 0 -68 24.5t-60 24.5q-10 0 -30 -11t-35 -22l-15 -11l-2 53q55 52 97 52q23 0 69 -24t57 -24q8 0 26.5 10t32.5 20zM254 558l153 149h38
l86 -149h-65l-50 88l-91 -88h-71z" />
    <glyph glyph-name="uni1EB0" unicode="&#x1eb0;" horiz-adv-x="554" 
d="M441 1080l181 -93l-31 -49l-184 87zM25 0l349 693h141l17 -693h-72l-6 182h-264l-92 -182h-73zM415 630l-195 -386h234l-8 386h-31zM348 883h62q-6 -39 9.5 -54.5t50.5 -15.5q33 0 59.5 19.5t34.5 50.5h62q-36 -126 -168 -126q-131 0 -110 126z" />
    <glyph glyph-name="uni1EC5" unicode="&#x1ec5;" horiz-adv-x="460" 
d="M572 839l5 -52q-50 -50 -92 -50q-21 0 -68 24.5t-60 24.5q-10 0 -30 -11t-35 -22l-15 -11l-2 53q55 52 97 52q23 0 69 -24t57 -24q8 0 26.5 10t33.5 20zM260 52q33 0 74 6t66 12l25 5l-6 -56q-88 -29 -177 -29q-72 0 -111.5 38t-39.5 112q0 67 16.5 131t48 118.5t85 87.5
t120.5 33q146 0 146 -119q0 -89 -67.5 -124.5t-213.5 -35.5h-53q-11 -48 -11 -85q0 -45 26.5 -69.5t71.5 -24.5zM183 286h57q101 0 149 23t48 80q0 63 -79 63q-126 0 -175 -166zM236 558l153 149h38l86 -149h-65l-50 88l-91 -88h-71z" />
    <glyph glyph-name="uni1ED7" unicode="&#x1ed7;" horiz-adv-x="494" 
d="M343 510q172 0 172 -169q0 -145 -70 -248t-184 -103q-169 0 -169 162q0 146 71.5 252t179.5 106zM261 51q81 0 132.5 86t51.5 205q0 50 -25.5 78.5t-76.5 28.5q-79 0 -130 -89t-51 -208q0 -101 99 -101zM578 839l5 -52q-50 -50 -92 -50q-21 0 -68 24.5t-60 24.5
q-10 0 -30 -11t-35 -22l-15 -11l-2 53q55 52 97 52q23 0 69 -24t57 -24q8 0 26.5 10t33.5 20zM235 558l153 149h38l86 -149h-65l-50 88l-91 -88h-71z" />
    <glyph glyph-name="Ygrave" unicode="&#x1ef2;" horiz-adv-x="492" 
d="M342 929l177 -99l-26 -47l-185 86zM639 693l-294 -397l-69 -296h-68l70 303l-107 390h72l84 -327l235 327h77z" />
    <glyph glyph-name="ygrave" unicode="&#x1ef3;" horiz-adv-x="454" 
d="M252 739l181 -93l-31 -49l-184 87zM140 500h69l10 -440h31l222 440h72l-368 -722h-71l116 222h-67z" />
    <glyph glyph-name="uni1EF8" unicode="&#x1ef8;" horiz-adv-x="492" 
d="M588 915l5 -52q-50 -50 -92 -50q-21 0 -68 24.5t-60 24.5q-10 0 -30 -11t-35 -22l-15 -11l-2 53q55 52 97 52q23 0 69 -24t57 -24q8 0 26.5 10t33.5 20zM639 693l-294 -397l-69 -296h-68l70 303l-107 390h72l84 -327l235 327h77z" />
    <glyph glyph-name="uni1EF9" unicode="&#x1ef9;" horiz-adv-x="454" 
d="M527 718l5 -52q-50 -50 -92 -50q-21 0 -68 24.5t-60 24.5q-10 0 -30 -11t-35 -22l-15 -11l-2 53q55 52 97 52q23 0 69 -24t57 -24q8 0 26.5 10t32.5 20zM140 500h69l10 -440h31l222 440h72l-368 -722h-71l116 222h-67z" />
    <glyph glyph-name="endash" unicode="&#x2013;" horiz-adv-x="600" 
d="M112 299h500v-62h-500v62z" />
    <glyph glyph-name="emdash" unicode="&#x2014;" horiz-adv-x="1100" 
d="M112 299h1000v-62h-1000v62z" />
    <glyph glyph-name="quoteleft" unicode="&#x2018;" horiz-adv-x="181" 
d="M253 693h52l-90 -221h-71z" />
    <glyph glyph-name="quoteright" unicode="&#x2019;" horiz-adv-x="181" 
d="M199 472h-52l90 221h71z" />
    <glyph glyph-name="quotesinglbase" unicode="&#x201a;" horiz-adv-x="174" 
d="M42 -132h-52l90 221h71z" />
    <glyph glyph-name="quotedblleft" unicode="&#x201c;" horiz-adv-x="336" 
d="M253 693h52l-90 -221h-71zM408 693h52l-90 -221h-71z" />
    <glyph glyph-name="quotedblright" unicode="&#x201d;" horiz-adv-x="337" 
d="M199 472h-52l90 221h71zM355 472h-52l90 221h71z" />
    <glyph glyph-name="quotedblbase" unicode="&#x201e;" horiz-adv-x="323" 
d="M247 89h52l-90 -221h-71zM85 89h52l-90 -221h-71z" />
    <glyph glyph-name="dagger" unicode="&#x2020;" horiz-adv-x="444" 
d="M127 426l16 72l160 -2l45 191h65l-44 -189h160l-16 -72l-161 1l-119 -502h-65l118 501h-159z" />
    <glyph glyph-name="daggerdbl" unicode="&#x2021;" horiz-adv-x="482" 
d="M189 -75l45 189h-161l16 71l161 -1l57 242h-159l16 72l160 -2l45 191h65l-44 -189h160l-17 -72l-160 1l-57 -242h160l-17 -71l-160 2l-45 -191h-65z" />
    <glyph glyph-name="bullet" unicode="&#x2022;" horiz-adv-x="487" 
d="M176 106v287h250v-287h-250z" />
    <glyph glyph-name="ellipsis" unicode="&#x2026;" horiz-adv-x="643" 
d="M51 0l24 107h71l-24 -107h-71zM288 0l24 107h71l-24 -107h-71zM522 0l24 107h71l-24 -107h-71z" />
    <glyph glyph-name="perthousand" unicode="&#x2030;" horiz-adv-x="815" 
d="M294 652q-28 0 -45 -21t-29 -67t-5.5 -69.5t34.5 -23.5q52 0 75 92q12 45 5 67t-35 22zM157 4l362 704l48 -14l-362 -702zM163 564q35 137 143 137q51 0 71.5 -34t3.5 -104t-55.5 -105.5t-89.5 -35.5t-71 35.5t-2 106.5zM341 141q35 138 143 138q110 0 75 -138
q-17 -71 -55 -106t-89 -35t-71 35t-3 106zM398 141q-12 -46 -5.5 -69t34.5 -23q52 0 75 92q12 45 5.5 67t-35.5 22q-28 0 -45 -21.5t-29 -67.5zM599 141q35 138 143 138q51 0 71.5 -34t3.5 -104q-17 -71 -55 -106t-89 -35q-109 0 -74 141zM656 141q-12 -46 -6 -69t34 -23
t46 22.5t30 69.5q11 45 4.5 67t-34.5 22t-45 -21.5t-29 -67.5z" />
    <glyph glyph-name="guilsinglleft" unicode="&#x2039;" horiz-adv-x="258" 
d="M306 407l-21 -73l-133 -88l89 -99l-19 -64l-140 148l13 35z" />
    <glyph glyph-name="guilsinglright" unicode="&#x203a;" horiz-adv-x="259" 
d="M66 82l21 73l133 88l-89 99l19 64l140 -148l-13 -35z" />
    <glyph glyph-name="fraction" unicode="&#x2044;" horiz-adv-x="16" 
d="M-89 -25l-65 24l427 691l66 -24z" />
    <glyph glyph-name="zerosuperior" unicode="&#x2070;" horiz-adv-x="280" 
d="M327 800q57 0 77 -36t0 -130q-26 -105 -74 -142q-33 -24 -86 -24q-58 0 -77.5 36.5t0.5 130.5q26 103 75 141q32 24 85 24zM313 744q-29 0 -48.5 -24.5t-34.5 -85.5q-15 -65 -7.5 -87.5t36.5 -22.5t48 24t34 87q15 61 8.5 85t-36.5 24z" />
    <glyph glyph-name="foursuperior" unicode="&#x2074;" horiz-adv-x="280" 
d="M276 478l12 49h-142l13 52l125 211h67l-126 -207h77l27 88h55l-22 -88h28l-14 -56h-28l-12 -49h-60z" />
    <glyph glyph-name="fivesuperior" unicode="&#x2075;" horiz-adv-x="280" 
d="M237 790h186l-13 -54h-134l-25 -75q28 16 62 16q43 0 63 -24t7 -75q-28 -108 -134 -108q-21 0 -47 3t-41 6l-15 3l19 53q51 -11 92 -11q49 0 62 52q12 47 -30 47q-13 0 -28 -4t-23 -8l-8 -4l-46 6z" />
    <glyph glyph-name="sixsuperior" unicode="&#x2076;" horiz-adv-x="280" 
d="M426 790l-16 -52q-47 7 -82 7q-32 0 -51.5 -18t-29.5 -59q34 14 64 14q103 0 77 -102q-29 -112 -138 -112q-116 0 -76 162q22 91 62 130.5t105 39.5q16 0 37.5 -2.5t34.5 -5.5zM291 630q-13 0 -27.5 -4t-23 -8t-8.5 -5q-21 -90 30 -90q50 0 64 56q7 29 -0.5 40t-34.5 11z
" />
    <glyph glyph-name="sevensuperior" unicode="&#x2077;" horiz-adv-x="280" 
d="M201 731l14 59h205l-18 -75l-167 -246l-68 15l163 226l5 21h-134z" />
    <glyph glyph-name="eightsuperior" unicode="&#x2078;" horiz-adv-x="280" 
d="M328 800q113 0 92 -85q-14 -61 -64 -74q47 -16 32 -75q-14 -55 -49 -76.5t-94 -21.5q-56 0 -81.5 22t-13.5 72q16 62 71 80q-42 16 -28 73q22 85 135 85zM258 520q56 0 67 46q5 20 -2 31t-27 18h-29q-23 -7 -35.5 -18.5t-17.5 -32.5q-12 -44 44 -44zM314 748
q-50 0 -61 -38q-8 -32 27 -46h28q41 12 49 45q5 20 -5 29.5t-38 9.5z" />
    <glyph glyph-name="ninesuperior" unicode="&#x2079;" horiz-adv-x="280" 
d="M146 480l17 50q42 -6 80 -6q64 0 85 75q-38 -13 -68 -13q-48 0 -67.5 28t-6.5 77q13 52 49.5 80.5t88.5 28.5q117 0 75 -167q-22 -90 -59.5 -127.5t-105.5 -37.5q-18 0 -40 3t-35 6zM282 637q11 0 26 4t24 8l10 4q22 92 -31 92q-49 0 -63 -54q-6 -24 2.5 -39t31.5 -15z
" />
    <glyph glyph-name="zeroinferior" unicode="&#x2080;" horiz-adv-x="280" 
d="M218 322q57 0 77 -36t0 -130q-26 -105 -74 -142q-33 -24 -86 -24q-58 0 -77.5 36.5t0.5 130.5q26 103 75 141q32 24 85 24zM204 266q-29 0 -48.5 -24.5t-34.5 -85.5q-15 -65 -7.5 -87.5t36.5 -22.5t48 24t34 87q15 61 8.5 85t-36.5 24z" />
    <glyph glyph-name="oneinferior" unicode="&#x2081;" horiz-adv-x="280" 
d="M84 142l118 70h57l-77 -312h-60l61 246l-82 -48z" />
    <glyph glyph-name="twoinferior" unicode="&#x2082;" horiz-adv-x="280" 
d="M218 -100h-208l13 54l111 88q64 47 73 84q5 20 -6.5 29t-34.5 9q-13 0 -35 -2.5t-37 -5.5l-16 -2l11 56q62 12 105 12q51 0 69.5 -22t7.5 -69q-8 -33 -29.5 -58t-61.5 -55l-78 -63h129z" />
    <glyph glyph-name="threeinferior" unicode="&#x2083;" horiz-adv-x="280" 
d="M85 211q61 11 104 11q53 0 73.5 -20.5t10.5 -62.5q-12 -49 -60 -76q23 -8 30 -22t0 -55q-24 -96 -131 -96q-22 0 -49 2.5t-43 5.5l-17 2l17 54q55 -8 99 -8q52 0 62 43q12 44 -37 44h-65l12 52h65q15 0 31 13.5t21 32.5q5 18 -4 26.5t-35 8.5l-93 -7z" />
    <glyph glyph-name="fourinferior" unicode="&#x2084;" horiz-adv-x="280" 
d="M149 -100l12 49h-142l13 52l125 211h67l-126 -207h77l27 88h55l-22 -88h28l-14 -56h-28l-12 -49h-60z" />
    <glyph glyph-name="fiveinferior" unicode="&#x2085;" horiz-adv-x="280" 
d="M97 212h186l-13 -54h-134l-25 -75q28 16 62 16q43 0 63 -24t7 -75q-28 -108 -134 -108q-21 0 -47 3t-41 6l-15 3l19 53q51 -11 92 -11q49 0 62 52q12 47 -30 47q-13 0 -28 -4t-23 -8l-8 -4l-46 6z" />
    <glyph glyph-name="sixinferior" unicode="&#x2086;" horiz-adv-x="280" 
d="M291 212l-16 -52q-47 7 -82 7q-32 0 -51.5 -18t-29.5 -59q34 14 64 14q102 0 77 -102q-29 -112 -138 -112q-116 0 -76 162q22 91 62 130.5t105 39.5q16 0 37.5 -2.5t34.5 -5.5zM156 52q-13 0 -27.5 -4t-23 -8t-8.5 -5q-21 -90 30 -90q50 0 64 56q7 29 -0.5 40t-34.5 11z
" />
    <glyph glyph-name="seveninferior" unicode="&#x2087;" horiz-adv-x="280" 
d="M73 153l14 59h205l-18 -75l-167 -246l-68 15l163 226l5 21h-134z" />
    <glyph glyph-name="eightinferior" unicode="&#x2088;" horiz-adv-x="280" 
d="M195 222q113 0 92 -85q-14 -61 -64 -74q47 -16 32 -75q-14 -55 -49 -76.5t-94 -21.5q-56 0 -81.5 22t-13.5 72q16 62 71 80q-42 16 -28 73q22 85 135 85zM125 -58q55 0 67 46q5 20 -2 31t-27 18h-29q-23 -7 -35.5 -18.5t-17.5 -32.5q-12 -44 44 -44zM181 170
q-50 0 -61 -38q-8 -32 27 -46h28q41 12 49 45q5 20 -5 29.5t-38 9.5z" />
    <glyph glyph-name="nineinferior" unicode="&#x2089;" horiz-adv-x="280" 
d="M12 -98l17 50q42 -6 80 -6q64 0 85 75q-38 -13 -68 -13q-48 0 -67.5 28t-6.5 77q13 52 49.5 80.5t88.5 28.5q117 0 75 -167q-22 -90 -59.5 -127.5t-105.5 -37.5q-18 0 -40 3t-35 6zM148 59q11 0 26 4t24 8l10 4q22 92 -31 92q-49 0 -63 -54q-6 -24 2.5 -39t31.5 -15z" />
    <glyph glyph-name="Euro" unicode="&#x20ac;" 
d="M499 68l-4 -57q-85 -21 -160 -21q-183 0 -183 189v33h-51l13 57h44q6 50 22 109h-42l14 57h48q41 106 112.5 171t172.5 65q33 0 72.5 -5.5t62.5 -11.5l23 -5l-16 -54q-74 15 -146 15q-68 0 -120.5 -47.5t-87.5 -127.5h273l-13 -57h-281q-14 -47 -23 -109h279l-13 -57
h-272v-29q0 -67 29.5 -99t92.5 -32q33 0 71.5 4t60.5 8z" />
    <glyph glyph-name="trademark" unicode="&#x2122;" horiz-adv-x="700" 
d="M219 581v48h200v-48h-68v-249h-52v249h-80zM451 331v298h68l69 -213l72 213h69v-298h-50v229l-69 -215h-42l-68 215v-229h-49z" />
    <glyph glyph-name="Omega" unicode="&#x2126;" 
d="M97 53h125l-11.5 20.5t-26.5 52.5t-33 76.5t-26 85.5t-12 87q0 155 47.5 225.5t172.5 70.5t172 -70.5t47 -225.5q0 -61 -27.5 -141.5t-54.5 -130.5l-28 -50h126v-62h-196v53l29.5 59.5t47 120t29.5 132.5q0 138 -28 194.5t-117 56.5q-90 0 -118 -56.5t-28 -194.5
q0 -49 26.5 -127t52.5 -131l27 -54v-53h-196v62z" />
    <glyph glyph-name="partialdiff" unicode="&#x2202;" 
d="M179 622l-4 57q10 6 26.5 14.5t62 22.5t85.5 14q120 0 176 -87t56 -280q0 -191 -54 -281.5t-175 -90.5q-222 0 -222 224q0 99 56 157t154 58q36 0 78 -8t66 -16l23 -7q-4 144 -42.5 206.5t-127.5 62.5q-32 0 -71.5 -11.5t-63.5 -22.5zM347 368q-69 0 -106 -42t-37 -111
q0 -78 37.5 -120t110.5 -42q81 0 117.5 69.5t38.5 214.5q-83 31 -161 31z" />
    <glyph glyph-name="Delta" unicode="&#x2206;" 
d="M85 53l162 607h128l161 -607l1 -53h-452v53zM324 599h-26l-140 -537h305z" />
    <glyph glyph-name="product" unicode="&#x220f;" 
d="M489 -161v850h-214v-850h-72v850h-70v64h499v-64h-72v-850h-71z" />
    <glyph glyph-name="summation" unicode="&#x2211;" 
d="M383 308l-269 348v97h467v-64h-392v-23l260 -332v-52l-260 -353v-26h392v-64h-467v97z" />
    <glyph glyph-name="minus" unicode="&#x2212;" 
d="M124 219v64h427v-64h-427z" />
    <glyph glyph-name="radical" unicode="&#x221a;" 
d="M115 382v64h119l131 -522h10l231 852h72l-253 -913h-113l-136 519h-61z" />
    <glyph glyph-name="infinity" unicode="&#x221e;" 
d="M221 121q-124 0 -124 171q0 82 31 126.5t91 44.5q46 0 75.5 -26.5t52.5 -82.5q23 56 52 82.5t76 26.5q60 0 91 -44.5t31 -126.5q0 -171 -124 -171q-45 0 -74 26t-52 81q-23 -62 -50 -84.5t-76 -22.5zM321 292q-2 5 -9.5 22l-10 23t-9.5 19.5t-12.5 18.5l-13.5 12.5
t-18 10t-21 2.5q-62 0 -62 -108t62 -108q36 0 51.5 19t37.5 76zM372 292q3 -6 11.5 -25.5t12 -26.5t12 -21t16 -19.5t19 -10.5t24.5 -5q62 0 62 108t-62 108q-11 0 -21 -3t-18 -10t-13.5 -12.5t-12.5 -18t-10 -19.5l-10 -23t-10 -22z" />
    <glyph glyph-name="integral" unicode="&#x222b;" 
d="M383 -6q0 -99 -33 -139.5t-102 -40.5l-87 8l3 60q40 -5 70 -5q43 0 60.5 26t17.5 92v579q0 114 32 160t102 46q19 0 42 -2t36 -4l13 -3l-3 -59q-37 4 -75 4q-39 0 -57.5 -32t-18.5 -110v-580z" />
    <glyph glyph-name="approxequal" unicode="&#x2248;" 
d="M541 382l10 -57q-60 -54 -113 -54q-30 0 -106 31.5t-95 31.5q-18 0 -44.5 -12t-43.5 -24l-17 -11l-11 58q62 53 117 53q29 0 104 -31.5t96 -31.5q16 0 42 11.5t44 23.5zM541 199l10 -57q-60 -54 -113 -54q-30 0 -106 31.5t-95 31.5q-18 0 -44.5 -11.5t-43.5 -23.5
l-17 -12l-11 58q62 53 117 53q29 0 104 -31.5t96 -31.5q16 0 42 12t44 24z" />
    <glyph glyph-name="notequal" unicode="&#x2260;" 
d="M121 310v64h229l68 156l57 -22l-59 -134h136v-64h-164l-51 -118h215v-65h-244l-66 -152l-57 22l57 130h-121v65h149l52 118h-201z" />
    <glyph glyph-name="lessequal" unicode="&#x2264;" 
d="M535 425l-341 -106l341 -115v-71l-423 151v64l423 148v-71zM112 22v64h423v-64h-423z" />
    <glyph glyph-name="greaterequal" unicode="&#x2265;" 
d="M467 319l-341 106v71l423 -148v-64l-423 -151v71zM549 86v-64h-423v64h423z" />
    <glyph glyph-name="lozenge" unicode="&#x25ca;" 
d="M129 329l171 100h21l-118 -100l118 -98h-21zM507 329l-119 100h22l171 -100l-171 -98h-22zM367 213h-24l-22 18h67zM321 429l22 18h24l21 -18h-67z" />
    <glyph glyph-name="commaaccent" unicode="&#xf6c3;" horiz-adv-x="161" 
d="M-42 -280l86 207h65l-94 -207h-57z" />
    <glyph glyph-name="a.002" horiz-adv-x="498" 
d="M510 346l-17 -66l-33 -147q-12 -53 43 -91l-17 -52q-70 27 -91 77q-10 -9 -27.5 -21.5t-63.5 -34t-84 -21.5q-59 0 -91 34t-32 92q0 163 211 180l124 10l9 40q12 51 -9.5 76.5t-69.5 25.5q-32 0 -77.5 -4t-74.5 -8l-30 -4l-3 53q103 25 196 25q79 0 117 -44t20 -120z
M420 254l-108 -10q-74 -8 -109 -35.5t-35 -86.5q0 -71 65 -71q32 0 71.5 19.5t62.5 39.5l23 19z" />
    <glyph glyph-name="zero.pnum" horiz-adv-x="516" 
d="M377 509q90 0 130 -41.5t40 -124.5q0 -76 -30.5 -157.5t-90.5 -133.5q-71 -61 -178 -61q-164 0 -164 163q0 94 38 179t106 132q64 44 149 44zM363 444q-89 0 -146 -84t-57 -194q0 -57 25 -83.5t80 -26.5q48 0 86 24t59.5 57.5t36 73.5t19.5 69t5 48q0 61 -25 88.5
t-83 27.5z" />
    <glyph glyph-name="one.pnum" horiz-adv-x="323" 
d="M107 384l209 116h71l-124 -500h-75l104 415l-165 -91z" />
    <glyph glyph-name="two.pnum" horiz-adv-x="441" 
d="M410 0h-377l15 64l196 138q160 112 160 182q0 28 -20.5 43t-76.5 15q-28 0 -68.5 -4.5t-68 -8.5t-27.5 -5l11 62q106 23 185 23q75 0 110 -29t35 -77q0 -67 -37 -114.5t-104 -94.5l-182 -128h261z" />
    <glyph glyph-name="three.pnum" horiz-adv-x="454" 
d="M163 489q106 20 184 20q151 0 151 -92q0 -40 -13.5 -71t-34.5 -47t-39.5 -24t-35.5 -10q35 -8 56.5 -30.5t21.5 -53.5q0 -79 -54.5 -134.5t-168.5 -55.5q-39 0 -87 5t-77 10l-29 5l23 61q101 -15 177 -15q72 0 108.5 32t36.5 80q0 60 -98 60h-121l15 63h124q48 0 85.5 27
t37.5 74q0 29 -20.5 39.5t-73.5 10.5q-34 0 -78 -4t-71 -8l-27 -4z" />
    <glyph glyph-name="four.pnum" horiz-adv-x="459" 
d="M300 0l25 102h-275l14 56l250 342h83l-246 -335h190l31 127h71l-31 -127h61l-16 -63h-61l-25 -102h-71z" />
    <glyph glyph-name="five.pnum" horiz-adv-x="460" 
d="M188 501h331l-17 -67h-266l-51 -148q75 30 130 30q150 0 150 -118q0 -92 -60.5 -149.5t-170.5 -57.5q-33 0 -80.5 5.5t-79.5 11.5l-31 6l23 63q112 -23 179 -23q65 0 105.5 38t40.5 95q0 34 -21.5 50.5t-75.5 16.5q-24 0 -59 -8.5t-59 -17.5l-23 -8l-50 12z" />
    <glyph glyph-name="six.pnum" horiz-adv-x="474" 
d="M530 490l-21 -58q-72 15 -142 15q-147 0 -191 -169q25 12 72 24.5t83 12.5q84 0 117 -28t33 -84q0 -40 -12.5 -75.5t-39.5 -67.5t-76.5 -51t-116.5 -19q-78 0 -115 40t-37 109q0 100 31.5 182.5t99 135.5t161.5 53q30 0 68.5 -5t61.5 -10zM311 255q-30 0 -67 -9t-60 -18
l-22 -9q-8 -48 -8 -72q0 -46 21.5 -72.5t76.5 -26.5q40 0 71 12.5t47 29.5t25.5 39t12 37t2.5 28q0 30 -20.5 45.5t-78.5 15.5z" />
    <glyph glyph-name="seven.pnum" horiz-adv-x="397" 
d="M124 437l16 64h348l-23 -93l-318 -423l-58 33l300 396l7 23h-272z" />
    <glyph glyph-name="eight.pnum" horiz-adv-x="490" 
d="M366 509q83 0 127 -28t44 -73q0 -110 -126 -144q75 -32 75 -92q0 -82 -59 -132t-190 -50q-84 0 -128.5 28t-44.5 76q0 120 135 170q-64 31 -64 87q0 66 59 112t172 46zM254 55q157 0 157 119q0 38 -72 56h-88q-49 -11 -79.5 -40.5t-30.5 -78.5q0 -56 113 -56zM347 447
q-44 0 -74 -10.5t-42.5 -27.5t-17 -31t-4.5 -28q0 -21 12 -34t45 -24h89q52 14 78.5 37t26.5 65q0 53 -113 53z" />
    <glyph glyph-name="nine.pnum" horiz-adv-x="473" 
d="M57 10l21 57q73 -14 142 -14q72 0 124 45.5t71 129.5q-87 -38 -158 -38q-149 0 -149 113q0 36 13 70.5t39.5 66t76 51t115.5 19.5q77 0 114 -40t37 -110q0 -102 -31.5 -184t-99 -134t-161.5 -52q-30 0 -68.5 5t-62.5 10zM278 249q30 0 67.5 9.5t60.5 18.5l22 9q6 27 6 67
q0 98 -99 98q-50 0 -84 -16.5t-48.5 -42t-19.5 -45t-5 -36.5q0 -62 100 -62z" />
    <glyph glyph-name="grave.cap" horiz-adv-x="488" 
d="M362 929l177 -99l-26 -47l-185 86z" />
    <glyph glyph-name="caron.cap" horiz-adv-x="437" 
d="M574 930l-157 -136h-43l-97 136h69l60 -85l96 85h72z" />
    <glyph glyph-name="tilde.cap" horiz-adv-x="431" 
d="M587 920l3 -53q-63 -56 -95 -56q-25 0 -77.5 28.5t-66.5 28.5q-10 0 -31.5 -12t-38.5 -24l-17 -13l-3 52q67 58 104 58q26 0 77 -28t63 -28q9 0 29.5 11.5t36.5 23.5z" />
    <glyph glyph-name="ring.cap" horiz-adv-x="313" 
d="M436 782q-11 -46 -44 -72t-82 -26q-47 0 -69 26t-9 72q27 99 126 99q46 0 68 -25t10 -74zM279 782q-5 -21 6 -35t37 -14q56 0 67 49q5 23 -7 36.5t-36 13.5q-54 0 -67 -50z" />
    <glyph glyph-name="hungarumlaut.cap" horiz-adv-x="664" 
d="M541 756l-38 30l169 125l43 -31zM353 757l-39 29l171 126l41 -31z" />
    <glyph glyph-name="zero.slash" 
d="M414 671q62 0 106 -21l96 148l48 -19l-103 -159q52 -52 52 -151q0 -88 -19.5 -171.5t-57 -153t-100.5 -112t-142 -42.5q-72 0 -121 35l-93 -143l-47 18l104 160q-38 50 -38 130q0 122 36 230.5t109.5 179.5t169.5 71zM536 462q0 54 -21 89l-301 -464q33 -31 85 -31
q76 0 132 65.5t80.5 155t24.5 185.5zM409 604q-59 0 -105.5 -38.5t-73 -100t-40.5 -130.5t-14 -139q0 -35 9 -62l294 453q-29 17 -70 17z" />
    <glyph glyph-name="braceleft.cap" horiz-adv-x="315" 
d="M234 252q0 -18 -24 -101.5t-24 -112.5q0 -71 91 -71l-17 -64q-143 5 -143 115q0 31 23.5 115.5t23.5 101.5q0 31 -17 49t-56 32l14 56q65 17 88 41.5t34 76.5q2 11 13 67.5t15 70.5q26 80 74.5 115t138.5 39l-12 -63q-66 -4 -97.5 -33t-44.5 -87q-20 -110 -22 -118
q-14 -63 -40.5 -92t-80.5 -47q63 -27 63 -90z" />
    <glyph glyph-name="questiondown.cap" horiz-adv-x="394" 
d="M62 126q0 72 32 115t133 122q68 54 79 103l8 39h66q-1 -31 -6 -59q-13 -63 -102 -133q-82 -63 -109 -97.5t-27 -84.5q0 -70 103 -70q27 0 63 4.5t59 9.5l23 5l-5 -58q-88 -25 -154 -25q-163 0 -163 129zM421 699l-24 -112h-72l25 112h71z" />
    <glyph glyph-name="braceright.cap" horiz-adv-x="316" 
d="M239 431q0 18 24 101.5t24 112.5q0 71 -91 71l17 64q143 -5 143 -115q0 -31 -23.5 -115.5t-23.5 -101.5q0 -31 17 -49t56 -32l-14 -56q-65 -17 -88 -41.5t-34 -76.5q-2 -11 -13 -67.5t-15 -70.5q-26 -80 -74.5 -115t-138.5 -39l12 63q66 4 97.5 33t44.5 87q20 110 22 118
q14 63 40.5 92t80.5 47q-63 27 -63 90z" />
    <glyph glyph-name="bracketright.cap" horiz-adv-x="277" 
d="M198 -91h-193l15 61h121l175 747h-121l15 61h191z" />
    <glyph glyph-name="parenright.cap" horiz-adv-x="228" 
d="M71 -88h-67l24 38t52.5 98t66.5 146t53 170.5t24 183.5q0 63 -3.5 122t-6.5 86l-4 28h66q21 -86 21 -236q0 -91 -23.5 -190t-56.5 -175.5t-66 -139.5t-57 -97z" />
    <glyph glyph-name="parenleft.cap" horiz-adv-x="226" 
d="M316 778h67l-24 -38t-52.5 -98t-66.5 -146t-53 -170.5t-24 -183.5q0 -63 3.5 -122t7.5 -86l3 -28h-66q-21 86 -21 236q0 91 23.5 190t56.5 175.5t66 139.5t56 97z" />
    <glyph glyph-name="bracketleft.cap" horiz-adv-x="279" 
d="M238 777h193l-15 -61h-121l-175 -747h121l-15 -61h-191z" />
    <glyph glyph-name="endash.cap" horiz-adv-x="600" 
d="M118 329h500v-62h-500v62z" />
    <glyph glyph-name="emdash.cap" horiz-adv-x="1100" 
d="M118 329h1000v-62h-1000v62z" />
    <glyph glyph-name="at.cap" horiz-adv-x="911" 
d="M649 813q95 0 163 -22t106 -60t55.5 -93t15.5 -115.5t-19 -132.5q-23 -95 -48 -156.5t-55.5 -94t-61 -44.5t-73.5 -12q-86 0 -97 57q-114 -57 -191 -57q-49 0 -78 21t-37 58t-7 70t8 74q54 297 254 297q55 0 190 -25q-80 -327 -81 -386q-1 -26 12 -34t42 -8q34 0 58 17
t50 73.5t50 159.5q15 63 18 112t-9.5 95.5t-43.5 77t-89.5 49t-143.5 18.5q-188 0 -294.5 -93t-157.5 -302q-97 -403 280 -403l137 10l-13 -62q-95 -10 -140 -10q-100 0 -172 28t-110 72.5t-55 107t-14.5 125t19.5 132.5q58 247 183.5 351.5t348.5 104.5zM461 146
q67 0 163 53q2 25 25.5 134t44.5 195q-61 14 -114 14q-73 0 -114.5 -59.5t-65.5 -176.5q-34 -159 61 -160z" />
    <glyph glyph-name="periodcentered.cap" horiz-adv-x="171" 
d="M115 281l25 114h72l-25 -114h-72z" />
    <glyph glyph-name="zero.dnom" horiz-adv-x="280" 
d="M196 222q57 0 77 -36t0 -130q-26 -105 -74 -142q-33 -24 -86 -24q-58 0 -77.5 36.5t0.5 130.5q26 103 75 141q32 24 85 24zM182 166q-29 0 -48.5 -24.5t-34.5 -85.5q-15 -65 -7.5 -87.5t36.5 -22.5t48 24t34 87q15 61 8.5 85t-36.5 24z" />
    <glyph glyph-name="one.dnom" horiz-adv-x="280" 
d="M80 142l118 70h57l-77 -312h-60l61 246l-82 -48z" />
    <glyph glyph-name="two.dnom" horiz-adv-x="280" 
d="M221 -100h-208l13 54l111 88q64 47 73 84q5 20 -6.5 29t-34.5 9q-13 0 -35 -2.5t-38 -5.5l-15 -2l11 56q62 12 105 12q51 0 69.5 -22t7.5 -69q-8 -33 -29.5 -58t-61.5 -55l-78 -63h129z" />
    <glyph glyph-name="three.dnom" horiz-adv-x="280" 
d="M86 211q61 11 104 11q53 0 73.5 -20.5t10.5 -62.5q-12 -49 -60 -76q23 -8 30 -22t0 -55q-24 -96 -131 -96q-22 0 -49 2.5t-44 5.5l-16 2l17 54q55 -8 99 -8q52 0 62 43q12 44 -37 44h-65l12 52h65q15 0 31 13.5t21 32.5q5 18 -4 26.5t-35 8.5l-93 -7z" />
    <glyph glyph-name="four.dnom" horiz-adv-x="280" 
d="M151 -100l12 49h-142l13 52l125 211h67l-126 -207h77l27 88h55l-22 -88h28l-14 -56h-28l-12 -49h-60z" />
    <glyph glyph-name="five.dnom" horiz-adv-x="280" 
d="M97 212h186l-13 -54h-134l-25 -75q28 16 62 16q43 0 63 -24t7 -75q-28 -108 -134 -108q-21 0 -47 3t-41 6l-15 3l19 53q51 -11 92 -11q49 0 62 52q12 47 -30 47q-13 0 -28 -4t-23 -8l-8 -4l-46 6z" />
    <glyph glyph-name="six.dnom" horiz-adv-x="280" 
d="M290 212l-16 -52q-47 7 -82 7q-32 0 -51.5 -18t-29.5 -59q34 14 64 14q103 0 77 -102q-29 -112 -138 -112q-116 0 -76 162q22 91 62 130.5t105 39.5q16 0 37.5 -2.5t34.5 -5.5zM155 52q-13 0 -27.5 -4t-23 -8t-8.5 -5q-21 -90 30 -90q50 0 64 56q7 29 -0.5 40t-34.5 11z
" />
    <glyph glyph-name="seven.dnom" horiz-adv-x="280" 
d="M72 153l14 59h205l-18 -75l-167 -246l-68 15l163 226l5 21h-134z" />
    <glyph glyph-name="eight.dnom" horiz-adv-x="280" 
d="M196 222q113 0 92 -85q-14 -61 -64 -74q47 -16 32 -75q-14 -55 -49 -76.5t-94 -21.5q-56 0 -81.5 22t-13.5 72q16 62 71 80q-42 16 -28 73q22 85 135 85zM126 -58q56 0 67 46q5 20 -2 31t-27 18h-29q-23 -7 -35.5 -18.5t-17.5 -32.5q-12 -44 44 -44zM182 170
q-50 0 -61 -38q-8 -32 27 -46h28q41 12 49 45q5 20 -5 29.5t-38 9.5z" />
    <glyph glyph-name="nine.dnom" horiz-adv-x="280" 
d="M13 -98l17 50q42 -6 80 -6q64 0 85 75q-38 -13 -68 -13q-48 0 -67.5 28t-6.5 77q13 52 49.5 80.5t88.5 28.5q117 0 75 -167q-22 -90 -59.5 -127.5t-105.5 -37.5q-18 0 -40 3t-35 6zM149 59q11 0 26 4t25 8l9 4q22 92 -31 92q-50 0 -63 -54q-6 -24 2.5 -39t31.5 -15z" />
    <glyph glyph-name="zero.numr" horiz-adv-x="280" 
d="M303 700q57 0 77 -36t0 -130q-26 -105 -74 -142q-33 -24 -86 -24q-58 0 -77.5 36.5t0.5 130.5q26 103 75 141q32 24 85 24zM289 644q-29 0 -48.5 -24.5t-34.5 -85.5q-15 -65 -7.5 -87.5t36.5 -22.5t48 24t34 87q15 61 8.5 85t-36.5 24z" />
    <glyph glyph-name="one.numr" horiz-adv-x="280" 
d="M184 620l118 70h57l-77 -312h-60l61 246l-82 -48z" />
    <glyph glyph-name="two.numr" horiz-adv-x="280" 
d="M328 378h-208l13 54l111 88q64 47 73 84q5 20 -6.5 29t-34.5 9q-13 0 -35 -2.5t-37 -5.5l-16 -2l11 56q62 12 105 12q51 0 69.5 -22t7.5 -69q-8 -33 -29.5 -58t-61.5 -55l-78 -63h129z" />
    <glyph glyph-name="three.numr" horiz-adv-x="280" 
d="M199 689q61 11 104 11q53 0 73.5 -20.5t10.5 -62.5q-12 -49 -60 -76q23 -8 30 -22t0 -55q-24 -96 -131 -96q-22 0 -49 2.5t-43 5.5l-17 2l17 54q55 -8 99 -8q52 0 62 43q12 44 -37 44h-65l12 52h65q15 0 31 13.5t21 32.5q5 18 -4 26.5t-35 8.5l-93 -7z" />
    <glyph glyph-name="four.numr" horiz-adv-x="280" 
d="M253 378l12 49h-142l13 52l125 211h67l-126 -207h77l27 88h55l-22 -88h28l-14 -56h-28l-12 -49h-60z" />
    <glyph glyph-name="five.numr" horiz-adv-x="280" 
d="M213 690h186l-13 -54h-134l-25 -75q28 16 62 16q43 0 63 -24t7 -75q-28 -108 -134 -108q-21 0 -47 3t-41 6l-15 3l19 53q51 -11 92 -11q49 0 62 52q12 47 -30 47q-13 0 -28 -4t-23 -8l-8 -4l-46 6z" />
    <glyph glyph-name="six.numr" horiz-adv-x="280" 
d="M400 690l-16 -52q-47 7 -82 7q-32 0 -51.5 -18t-29.5 -59q34 14 64 14q103 0 77 -102q-29 -112 -138 -112q-116 0 -76 162q22 91 62 130.5t105 39.5q16 0 37.5 -2.5t34.5 -5.5zM265 530q-13 0 -27.5 -4t-23 -8t-8.5 -5q-21 -90 30 -90q50 0 64 56q7 29 -0.5 40t-34.5 11z
" />
    <glyph glyph-name="seven.numr" horiz-adv-x="280" 
d="M184 631l14 59h205l-18 -75l-167 -246l-68 15l163 226l5 21h-134z" />
    <glyph glyph-name="eight.numr" horiz-adv-x="280" 
d="M304 700q113 0 92 -85q-14 -61 -64 -74q47 -16 32 -75q-14 -55 -49 -76.5t-94 -21.5q-56 0 -81.5 22t-13.5 72q16 62 71 80q-42 16 -28 73q22 85 135 85zM234 420q56 0 67 46q5 20 -2 31t-27 18h-29q-23 -7 -35.5 -18.5t-17.5 -32.5q-12 -44 44 -44zM290 648
q-50 0 -61 -38q-8 -32 27 -46h28q41 12 49 45q5 20 -5 29.5t-38 9.5z" />
    <glyph glyph-name="nine.numr" horiz-adv-x="280" 
d="M125 380l17 50q42 -6 80 -6q64 0 85 75q-38 -13 -68 -13q-48 0 -67.5 28t-6.5 77q13 52 49.5 80.5t88.5 28.5q117 0 75 -167q-22 -90 -59.5 -127.5t-105.5 -37.5q-18 0 -40 3t-35 6zM261 537q11 0 26 4t25 8l9 4q22 92 -31 92q-50 0 -63 -54q-6 -24 2.5 -39t31.5 -15z
" />
    <glyph glyph-name="exclamdown.cap" horiz-adv-x="191" 
d="M236 466l-106 -473h-72l116 473h62zM288 693l-24 -107h-71l24 107h71z" />
    <glyph glyph-name="hyphen.cap" horiz-adv-x="342" 
d="M108 266l15 64h248l-17 -64h-246z" />
    <glyph glyph-name="I.001" horiz-adv-x="326" 
d="M198 635l14 58h222l-14 -58h-76l-132 -577h76l-13 -58h-222l13 58h75l132 577h-75z" />
    <glyph glyph-name="acute.cap.001" horiz-adv-x="503" 
d="M327 786l-12 54l228 94l13 -64z" />
    <glyph glyph-name="circumflex.cap.001" horiz-adv-x="437" 
d="M247 795l163 136h37l97 -136h-65l-57 82l-99 -82h-76z" />
    <glyph glyph-name="dieresis.cap" horiz-adv-x="385" 
d="M287 816l20 90h58l-22 -90h-56zM473 816l21 90h58l-22 -90h-57z" />
    <glyph glyph-name="macron.cap" horiz-adv-x="437" 
d="M265 825l12 55h291l-13 -55h-290z" />
    <glyph glyph-name="breve.cap" horiz-adv-x="437" 
d="M288 923h62q-6 -39 9.5 -54.5t50.5 -15.5q33 0 59.5 19.5t34.5 50.5h62q-36 -126 -168 -126q-131 0 -110 126z" />
    <glyph glyph-name="dotaccent.cap" horiz-adv-x="222" 
d="M264 794l19 86h59l-19 -86h-59z" />
    <glyph glyph-name="Tcedilla" horiz-adv-x="470" 
d="M328 -124q-20 -86 -107 -86q-19 0 -38.5 2t-30.5 4l-10 1l12 48q37 -3 64 -3q41 0 51 37q8 34 -34 34h-41l21 87h-17l145 630h-188l15 63h448l-15 -63h-188l-146 -630h-16l-12 -46h6q99 0 81 -78z" />
    <glyph glyph-name="tcedilla" horiz-adv-x="317" 
d="M292 -124q-20 -86 -107 -86q-19 0 -38.5 2t-30.5 4l-10 1l12 48q37 -3 64 -3q41 0 51 37q8 34 -34 34h-41l19 82q-63 17 -63 89q0 38 16 104l59 251h-66l16 61h65l36 150h70l-37 -150h143l-15 -61h-142l-60 -256q-12 -56 -12 -84q0 -48 51 -48l79 6l-5 -54
q-52 -13 -96 -13h-1l-10 -36h6q99 0 81 -78z" />
    <glyph glyph-name="a.alt" horiz-adv-x="498" 
d="M217 -10q-127 0 -127 146q0 84 26.5 167t86 145t138.5 62q28 0 78.5 -6t86.5 -12l36 -7l-75 -324l-29 -159l-68 -3q15 89 19 109q-3 -5 -9.5 -13t-26 -28t-38.5 -35.5t-46.5 -28.5t-51.5 -13zM343 449q-56 0 -99.5 -52.5t-63 -122.5t-19.5 -138q0 -43 17.5 -64t59.5 -21
q29 0 70 33.5t68 67.5l27 33l59 250q-71 14 -119 14z" />
    <glyph glyph-name="a.001" horiz-adv-x="498" 
d="M510 346l-20 -80h1l-24 -105l-29 -159l-68 -3q11 68 16 89q-3 -4 -9 -10.5t-25 -23.5t-38 -30t-46 -23.5t-51 -10.5q-66 0 -96.5 30.5t-30.5 95.5q0 181 208 181q38 0 127 -17l16 66q12 51 -9.5 76.5t-69.5 25.5q-32 0 -77.5 -4t-74.5 -8l-30 -4l-3 53q103 25 196 25
q79 0 117 -44t20 -120zM301 243q-73 0 -106.5 -29.5t-33.5 -91.5q0 -71 68 -71q34 0 76 26t67 52l25 26l16 74q-64 14 -112 14z" />
    </font>
</defs>
</svg>
